<?xml version="1.0" encoding="UTF-8"?>
<svg width="160px" height="160px" viewBox="0 0 160 160" version="1.1" xmlns="http://www.w3.org/2000/svg" xmlns:xlink="http://www.w3.org/1999/xlink">
    <!-- Generator: Sketch 59.1 (86144) - https://sketch.com -->
    <title>空态-无数据</title>
    <desc>Created with Sketch.</desc>
    <defs>
        <linearGradient x1="55.647854%" y1="21.7699098%" x2="45.0059063%" y2="112.994736%" id="linearGradient-1">
            <stop stop-color="#2A8BFD" offset="0%"></stop>
            <stop stop-color="#000000" stop-opacity="0.69" offset="8%"></stop>
            <stop stop-color="#000000" stop-opacity="0.32" offset="21%"></stop>
            <stop stop-color="#000000" stop-opacity="0" offset="100%"></stop>
        </linearGradient>
        <linearGradient x1="188.91186%" y1="-12.640428%" x2="-64.3308814%" y2="101.546088%" id="linearGradient-2">
            <stop stop-color="#000000" offset="0%"></stop>
            <stop stop-color="#000000" stop-opacity="0.69" offset="8%"></stop>
            <stop stop-color="#000000" stop-opacity="0.32" offset="21%"></stop>
            <stop stop-color="#000000" stop-opacity="0" offset="100%"></stop>
        </linearGradient>
        <linearGradient x1="-25.2942756%" y1="242.362715%" x2="178.132343%" y2="35.0607408%" id="linearGradient-3">
            <stop stop-color="#000000" offset="0%"></stop>
            <stop stop-color="#000000" stop-opacity="0.69" offset="11.6150504%"></stop>
            <stop stop-color="#000000" stop-opacity="0.32" offset="20.5126778%"></stop>
            <stop stop-color="#000000" stop-opacity="0" offset="100%"></stop>
        </linearGradient>
        <linearGradient x1="47.6592749%" y1="46.705351%" x2="53.5902851%" y2="55.0495098%" id="linearGradient-4">
            <stop stop-color="#000000" offset="1%"></stop>
            <stop stop-color="#000000" stop-opacity="0.69" offset="8%"></stop>
            <stop stop-color="#000000" stop-opacity="0.32" offset="21%"></stop>
            <stop stop-color="#000000" stop-opacity="0" offset="100%"></stop>
        </linearGradient>
        <linearGradient x1="46.8061051%" y1="42.8371519%" x2="54.8615037%" y2="60.9788508%" id="linearGradient-5">
            <stop stop-color="#000000" offset="1%"></stop>
            <stop stop-color="#000000" stop-opacity="0.69" offset="8%"></stop>
            <stop stop-color="#000000" stop-opacity="0.32" offset="21%"></stop>
            <stop stop-color="#000000" stop-opacity="0" offset="100%"></stop>
        </linearGradient>
    </defs>
    <g id="数据少-内页" stroke="none" stroke-width="1" fill="none" fill-rule="evenodd">
        <g id="3-数据少-列表无信息" transform="translate(-638.000000, -398.000000)">
            <g id="空态-无数据" transform="translate(638.000000, 398.000000)">
                <circle id="椭圆形" fill="#E3F2FE" cx="80" cy="80" r="80"></circle>
                <g id="编组-3" transform="translate(28.592297, 35.548146)">
                    <path d="M10.3727599,84.1344358 L9.86062331,84.1024273 C8.18417625,83.9703921 7.05987644,84.8266204 5.64749981,85.6548413 C3.96705169,86.6431048 2.04653955,87.1872499 0.410103168,88.2235263 C0.166038084,88.3795679 -0.106034469,88.6676447 0.0420050082,88.9157109 C0.142031682,89.0797546 0.370092498,89.103761 0.566144779,89.1077621 C4.70724907,89.1877834 8.83635017,89.2037877 12.9694523,89.2037877 L87.9894577,89.2037877 C90.7245761,89.1926483 93.4561929,89.0068876 96.1676385,88.6476394 C96.570487,88.63547 96.9014178,88.3255997 96.9400123,87.9244196 C96.9786069,87.5232395 96.7128193,87.1559635 96.3196791,87.0672179 C93.9937255,86.2670045 91.6571024,85.518805 89.3098098,84.8226194 C83.3442189,83.0301414 76.6464329,83.8143505 70.5047951,83.9423846 C64.0390709,84.082422 57.5613435,84.2424647 51.0996204,83.8263537 C46.4463795,83.5262737 42.7934054,83.8263537 38.1241602,83.9783942 C34.7192523,84.0784209 31.3503539,84.3785009 27.9334427,84.3264871 L15.7982067,84.1784476 C13.9897244,84.1904508 12.1692389,84.2424647 10.3727599,84.1344358 Z" id="路径" fill="#2A8BFD" fill-rule="nonzero" opacity="0.383719308"></path>
                    <polygon id="路径" fill="#2A8BFD" fill-rule="nonzero" points="34.2551285 84.5905575 64.7392576 84.5905575 59.3458194 65.201387 38.8043416 65.201387"></polygon>
                    <polygon id="路径" fill="url(#linearGradient-1)" fill-rule="nonzero" points="34.2551285 84.5905575 64.7392576 84.5905575 59.3458194 65.201387 38.8043416 65.201387"></polygon>
                    <path d="M95.1593696,13.3955722 L95.1593696,63.408909 C95.1417412,66.4211438 92.6901812,68.8512303 89.6779079,68.8423822 L10.6888442,68.8423822 C7.6712679,68.8423822 5.22380053,66.3984746 5.21938564,63.3809016 L5.21938564,13.3955722 C5.21938564,10.3748736 7.66814563,7.92610041 10.6888442,7.92610041 L89.6779079,7.92610041 C91.1284996,7.92292669 92.5209444,8.49611737 93.5489186,9.51958953 C94.5768929,10.5430617 95.1561897,11.9329773 95.1593696,13.383569 L95.1593696,13.3955722 Z" id="路径" fill="#2A8BFD" fill-rule="nonzero"></path>
                    <path d="M95.1593696,13.3995732 L95.1593696,57.2392638 L5.21938564,57.2392638 L5.21938564,13.3995732 C5.21938564,10.3782268 7.66749854,7.92832222 10.6888442,7.92611217 L89.6779079,7.92611217 C91.1306209,7.92505209 92.5242562,8.50112223 93.5522298,9.5275951 C94.5802034,10.554068 95.1583089,11.9468602 95.1593696,13.3995732 L95.1593696,13.3995732 Z" id="路径" fill="#2A8BFD" fill-rule="nonzero"></path>
                    <path d="M93.807009,14.4278474 L93.807009,55.7748733 L6.58374947,55.7748733 L6.58374947,14.4278474 C6.60795241,11.5219576 8.97518512,9.18154396 11.8811621,9.19037395 L88.4975932,9.19037395 C91.4082455,9.17491457 93.7827947,11.5172544 93.807009,14.4278474 Z" id="路径" fill="#FFFFFF" fill-rule="nonzero"></path>
                    <path d="M93.807009,14.4278474 L93.807009,55.7748733 L6.58374947,55.7748733 L6.58374947,14.4278474 C6.60795241,11.5219576 8.97518512,9.18154396 11.8811621,9.19037395 L88.4975932,9.19037395 C91.4082455,9.17491457 93.7827947,11.5172544 93.807009,14.4278474 Z" id="路径" fill="#E3F2FE" fill-rule="nonzero"></path>
                    <rect id="矩形" fill="url(#linearGradient-2)" fill-rule="nonzero" x="70.9729199" y="50.973593" width="31.0042678" height="25.3667645" rx="3.64897306"></rect>
                    <path d="M33.5269343,7.92611363 L33.5269343,25.0186716 C33.5269343,26.3312502 32.4628791,27.3953054 31.1503006,27.3953054 L5.21938564,27.3953054 L5.21938564,13.3915711 C5.22599452,10.3742626 7.67153161,7.93051445 10.6888442,7.92611363 L33.5269343,7.92611363 Z" id="路径" fill="url(#linearGradient-3)" fill-rule="nonzero"></path>
                    <line x1="80.183376" y1="31.9645239" x2="68.0801485" y2="25.3667645" id="路径"></line>
                    <path d="M31.1503006,28.6676447 L72.7613968,28.6676447 C74.3082066,28.6676447 75.5621437,29.9215818 75.5621437,31.4683916 L75.5621437,31.4683916 C75.5621437,33.0152014 74.3082066,34.2691384 72.7613968,34.2691384 L31.1503006,34.2691384 L31.1503006,28.6676447 Z" id="路径" fill="#2A8BFD" fill-rule="nonzero"></path>
                    <rect id="矩形" fill="#FFFFFF" fill-rule="nonzero" x="31.1503006" y="28.6676447" width="33.5929581" height="5.57748733"></rect>
                    <circle id="椭圆形" stroke="#FFFFFF" stroke-width="0.5" cx="69.724587" cy="31.1403041" r="1.3443585"></circle>
                    <line x1="70.9569157" y1="33.3288877" x2="70.4047684" y2="32.3006135" id="路径" stroke="#FFFFFF" stroke-width="0.5"></line>
                    <g id="编组-2" transform="translate(13.797673, 28.331555)" fill="#2A8BFD" fill-rule="nonzero">
                        <path d="M7.87384906,15.2896639 C5.85225734,15.2896639 3.66219964,13.1332655 2.39870482,9.80606242 C0.98359061,5.95661484 1.59849143,2.42725263 3.83066562,1.60176934 C6.06283981,0.776286055 8.81725854,3.06742334 10.240796,6.91687091 L10.240796,6.91687091 C11.6643335,10.7747418 11.0831259,14.304104 8.81725854,15.1295873 C8.51440427,15.2370677 8.19520592,15.2912174 7.87384906,15.2896639 Z M4.77407509,3.25273119 C4.66536747,3.25240484 4.55730687,3.26946704 4.45398973,3.30327571 C3.40950068,3.69074746 3.03887553,6.2851235 4.10863448,9.1995849 C5.17839343,12.1140463 7.14102207,13.823976 8.18551112,13.4112343 C9.23000018,12.9984927 9.60062533,10.4293865 8.53928967,7.51492513 L8.53928967,7.51492513 C7.57061031,4.93739568 5.86068064,3.25273119 4.77407509,3.25273119 Z" id="形状" transform="translate(6.327133, 8.361836) rotate(-12.000000) translate(-6.327133, -8.361836) "></path>
                        <path d="M17.1740758,23.5213892 C16.8973109,23.5205831 16.6351248,23.3972014 16.4580954,23.1844573 L9.71945636,14.6937721 C9.56927306,14.5040787 9.50084167,14.2623734 9.52929453,14.0221047 C9.5577474,13.7818361 9.68074034,13.5627994 9.87107574,13.4134306 L9.87107574,13.4134306 C10.2598751,13.1052975 10.8245902,13.1692986 11.1345706,13.5566267 L11.1345706,13.5566267 L17.8732096,22.0473119 C18.0908995,22.3183633 18.1332924,22.6904491 17.9821536,23.0035222 C17.8310149,23.3165954 17.5132935,23.5148329 17.1656525,23.5129659 L17.1740758,23.5213892 Z" id="路径"></path>
                    </g>
                    <rect id="矩形" fill="#FFFFFF" fill-rule="nonzero" x="69.6685721" y="49.6692451" width="31.0042678" height="25.3667645" rx="3.64897306"></rect>
                    <rect id="矩形" fill="#2A8BFD" fill-rule="nonzero" x="0.72218639" y="0" width="31.0042678" height="25.3667645" rx="2.38063484"></rect>
                    <polygon id="路径" fill="#2A8BFD" fill-rule="nonzero" points="96.2756673 71.1789811 74.2217863 71.1789811 74.2217863 54.8986396 74.621893 54.8986396 74.621893 70.7788744 96.2756673 70.7788744"></polygon>
                    <rect id="矩形" fill="#2A8BFD" fill-rule="nonzero" x="77.9147711" y="63.0248066" width="2.59269138" height="7.75406775"></rect>
                    <rect id="矩形" fill="#2A8BFD" fill-rule="nonzero" x="83.2041816" y="59.643905" width="2.59269138" height="11.1349693"></rect>
                    <rect id="矩形" fill="#2A8BFD" fill-rule="nonzero" x="89.0097297" y="57.2352627" width="2.59269138" height="13.5436116"></rect>
                    <rect id="矩形" fill="url(#linearGradient-4)" fill-rule="nonzero" x="4.78727041" y="5.25340091" width="22.7340624" height="1.4283809"></rect>
                    <rect id="矩形" fill="url(#linearGradient-5)" fill-rule="nonzero" x="4.78727041" y="9.53454254" width="14.1557749" height="1.4283809"></rect>
                    <rect id="矩形" fill="url(#linearGradient-4)" fill-rule="nonzero" x="4.78727041" y="13.8156842" width="22.7340624" height="1.4283809"></rect>
                    <rect id="矩形" fill="url(#linearGradient-5)" fill-rule="nonzero" x="4.78727041" y="18.0968258" width="14.1557749" height="1.4283809"></rect>
                </g>
            </g>
        </g>
    </g>
</svg>