<?xml version="1.0" encoding="UTF-8"?>
<svg width="16px" height="16px" viewBox="0 0 16 16" version="1.1" xmlns="http://www.w3.org/2000/svg" xmlns:xlink="http://www.w3.org/1999/xlink">
    <!-- Generator: Sketch 59.1 (86144) - https://sketch.com -->
    <title>搜索icon</title>
    <desc>Created with Sketch.</desc>
    <g id="20201013" stroke="none" stroke-width="1" fill="none" fill-rule="evenodd">
        <g id="定-1920-新改内页1-2" transform="translate(-1052.000000, -23.000000)">
            <g id="陕西导航-云">
                <g id="搜索icon" transform="translate(1052.000000, 23.000000)">
                    <g id="编组-3">
                        <rect id="矩形" x="0" y="0" width="16" height="16"></rect>
                        <path d="M14.7335376,13.6134177 L12.3835003,11.1891537 C13.1974788,10.122319 13.6870561,8.79345342 13.6870561,7.34802756 C13.6870561,3.84666933 10.8483002,1.0078984 7.34692695,1.0078984 C3.84541807,1.0078984 1.00627052,3.8462927 1.00627052,7.34802756 C1.00627052,10.8499281 3.84502639,13.688232 7.34639966,13.6883074 C8.79188577,13.6883074 10.1207513,13.1985041 11.1866821,12.3838928 L13.5367194,14.8081418 C13.8671016,15.138524 14.4021761,15.138524 14.7321515,14.8080665 C15.0631364,14.478091 15.0631364,13.9430165 14.7335376,13.6134177 Z M7.34647499,11.9973019 C4.77820164,11.9973019 2.69727593,9.91613519 2.69727593,7.34802756 C2.69727593,4.77976927 4.77866867,2.69875317 7.34647499,2.69875317 C9.91495924,2.69875317 11.9958097,4.78014591 11.9958097,7.34802756 C11.9962767,9.91598453 9.91495925,11.9973019 7.34647499,11.9973019 Z" id="形状" fill="#FFFFFF" fill-rule="nonzero"></path>
                    </g>
                </g>
            </g>
        </g>
    </g>
</svg>