<?xml version="1.0" standalone="no"?>
<!DOCTYPE svg PUBLIC "-//W3C//DTD SVG 1.1//EN" "http://www.w3.org/Graphics/SVG/1.1/DTD/svg11.dtd" >
<!--
2013-9-30: Created.
-->
<svg>
<metadata>
Created by iconfont
</metadata>
<defs>

<font id="base-font" horiz-adv-x="1024" >
  <font-face
    font-family="base-font"
    font-weight="500"
    font-stretch="normal"
    units-per-em="1024"
    ascent="896"
    descent="-128"
  />
    <missing-glyph />
    
    <glyph glyph-name="-daiban" unicode="&#58898;" d="M843.4688 447.6928a266.3424 266.3424 0 0 1-113.152 24.9856c-140.8 0-254.464-108.6464-254.464-242.2784 0-53.8624 18.5856-103.936 49.8176-143.9744H277.504l-135.8336-97.024c-24.9344-17.664-60.6208-12.9536-79.2064 10.752a52.8896 52.8896 0 0 0-11.3152 32.256V685.8240000000001C51.2 745.3696 101.888 793.6 164.352 793.6h565.9136c62.5152 0 113.152-48.2304 113.152-107.776v-238.1312zM239.9744 615.5776000000001a36.9664 36.9664 0 0 1-37.5808-36.1984c0-19.8144 16.7424-36.1984 37.5808-36.1984h415.1296c20.8896 0 37.5808 16.384 37.5808 36.1984a36.9664 36.9664 0 0 1-37.5808 36.1984H239.9744z m0-169.5744a36.9664 36.9664 0 0 1-37.5808-36.1984c0-19.9168 16.7424-36.2496 37.5808-36.2496h150.784c20.8384 0 37.5808 16.4352 37.5808 36.2496a36.9152 36.9152 0 0 1-37.5808 36.1984H239.9744zM753.3568-1.2287999999999784c-124.928 0-226.304 96.5632-226.304 215.552s101.376 215.552 226.304 215.552 226.3552-96.5632 226.3552-215.552-101.376-215.552-226.304-215.552z m19.0464 295.424a36.9152 36.9152 0 0 1-37.5808 36.1984 36.9664 36.9664 0 0 1-37.5808-36.2496v-108.5952c0-11.264 5.376-21.1456 13.6192-27.648 1.7408-1.6896 4.0448-3.4304 6.3488-4.7104l96.9216-56.064a38.4 38.4 0 0 1 52.0704 11.6224 35.6352 35.6352 0 0 1-11.776 50.0224c-0.4096 0.4096-0.8704 0.4096-1.3312 0.8192l-80.6912 45.7216v88.832z"  horiz-adv-x="1024" />

    
    <glyph glyph-name="icon-paixu-shang" unicode="&#58900;" d="M640.568889-127.317333H480.938667V538.510222H285.696L640.568889 895.089778v-1022.407111z"  horiz-adv-x="1024" />

    
    <glyph glyph-name="icon-paixu-moren" unicode="&#58906;" d="M585.813333 783.36H705.706667v-502.016h146.346666l-266.24-267.434667V783.36zM437.76 43.178667H318.037333V542.549333H171.605333l266.24 267.434667v-766.805333z"  horiz-adv-x="1024" />

    
    <glyph glyph-name="icon-jisuanqi" unicode="&#58909;" d="M0 896m64 0l896 0q64 0 64-64l0-896q0-64-64-64l-896 0q-64 0-64 64l0 896q0 64 64 64ZM373.76 456.864h138.976v-38.88h-139.008v38.88z m172.16-0.48h133.152v-37.504h-133.12v37.504z m0-126.688h133.152v-38.688h-133.12v38.688z m0-56.832h133.152v-37.12h-133.12v37.12zM422.88 505.824h40.384v-133.152h-40.384zM388.384 316l24.064 24.448 92.672-91.232-24.064-24.448zM388.8 248.736l91.776 92.032 24.288-24.192-91.808-92.064zM682.272 128H373.76A85.824 85.824 0 0 0 288 213.76v308.544A85.824 85.824 0 0 0 373.728 608h308.544A85.824 85.824 0 0 0 768 522.304v-308.576A85.792 85.792 0 0 0 682.272 128zM380.48 559.328c-23.68 0-42.848-19.2-42.88-42.88v-298.016c0.032-23.68 19.2-42.848 42.88-42.88h294.72c23.68 0.032 42.88 19.2 42.88 42.88v298.048c0 23.648-19.2 42.816-42.88 42.848h-294.72z"  horiz-adv-x="1024" />

    
    <glyph glyph-name="icon-shaixuan-moren" unicode="&#58910;" d="M512 409.6v-337.066667a27.392 27.392 0 0 0-8.533333-21.333333 27.392 27.392 0 0 0-21.333334-8.533333c-4.266667 0-8.533333 2.218667-12.8 2.218666l-57.514666 29.866667c-10.666667 4.266667-14.933333 14.933333-14.933334 25.6V409.6L177.237333 671.914667a39.082667 39.082667 0 0 0-4.266666 34.133333c6.4 12.8 17.066667 19.2 29.866666 19.2H708.266667c12.8 0 23.466667-6.4 29.866666-19.2 4.266667-10.581333 4.266667-25.6-4.266666-34.133333L512 409.6z m142.933333-83.2a28.245333 28.245333 0 0 0-27.733333 27.733333 28.16 28.16 0 0 0 27.733333 27.733334h170.581334a28.16 28.16 0 0 0 27.733333-27.733334 28.245333 28.245333 0 0 0-27.733333-27.733333h-170.666667z m0-113.066667a28.16 28.16 0 0 0-27.733333 27.733334 28.16 28.16 0 0 0 27.733333 27.733333h170.581334a28.16 28.16 0 0 0 27.733333-27.733333 28.16 28.16 0 0 0-27.733333-27.733334h-170.666667z m0-112.981333A28.16 28.16 0 0 0 627.2 128a28.16 28.16 0 0 0 27.733333 27.648h170.581334a28.16 28.16 0 0 0 27.733333-27.648 28.16 28.16 0 0 0-27.733333-27.733333h-170.666667z"  horiz-adv-x="1024" />

    
    <glyph glyph-name="-all-menu" unicode="&#58911;" d="M102.7584 793.6h187.136v-179.712H102.7584zM398.592 793.6h187.136v-179.712H398.592zM694.5792 793.6h187.1872v-179.712h-187.1872zM102.7584 492.288h187.136v-179.712H102.7584zM398.592 492.288h187.136v-179.712H398.592zM694.5792 492.288h187.1872v-179.712h-187.1872zM102.7584 181.24800000000005h187.136v-179.712H102.7584zM398.592 181.24800000000005h187.136v-179.712H398.592zM694.5792 181.24800000000005h187.1872v-179.712h-187.1872z"  horiz-adv-x="1024" />

    
    <glyph glyph-name="icon-paixu-xia" unicode="&#58912;" d="M395.776 863.232H539.648v-602.4192h175.616L395.776-60.1088V863.232z"  horiz-adv-x="1024" />

    
    <glyph glyph-name="icon-shouqi-shu" unicode="&#58913;" d="M379.050667 668.842667l297.045333-272.384a21.333333 21.333333 0 0 0 0-31.488L379.050667 92.672a21.333333 21.333333 0 0 0-35.84 15.701333V653.056a21.333333 21.333333 0 0 0 35.84 15.786667z"  horiz-adv-x="1024" />

    
    <glyph glyph-name="icon-quanping" unicode="&#58914;" d="M0 896m64 0l896 0q64 0 64-64l0-896q0-64-64-64l-896 0q-64 0-64 64l0 896q0 64 64 64ZM362.336 513.6v-256.672c0-9.888 7.392-19.744 19.744-19.744h256.704a19.456 19.456 0 0 1 19.744 19.744V513.6a19.456 19.456 0 0 1-19.744 19.744H382.08c-12.352 0-19.744-7.424-19.744-19.744zM683.2 212.48h-81.44v-49.344h88.864c22.208 0 39.488 17.28 39.488 39.488v88.864h-49.376v-79.008h2.464z m9.888 394.944h-88.864v-49.376h81.44v-81.44h49.376v91.328c-2.464 22.208-19.744 39.488-41.952 39.488zM337.6 558.048h81.472V607.424h-91.328c-22.208 0-39.488-17.28-39.488-39.488v-88.864h49.344v78.976z m0-264.096H288.32v-88.864c0-22.208 17.28-39.488 39.488-39.488h88.864v49.344H337.6v79.008z"  horiz-adv-x="1024" />

    
    <glyph glyph-name="-daohang-set" unicode="&#58915;" d="M0 896m64 0l896 0q64 0 64-64l0-896q0-64-64-64l-896 0q-64 0-64 64l0 896q0 64 64 64ZM762.176 448.64c-2.784 14.592-11.52 24-22.208 23.68h-2.144a66.464 66.464 0 0 0-66.432 66.432c0 12.096 5.76 25.28 5.76 25.408a30.08 30.08 0 0 1-10.08 36.352l-0.64 0.384-63.904 35.52-0.64 0.256a33.536 33.536 0 0 1-36.16-7.232c-7.808-8.064-32.416-28.992-52.256-28.992-20.032 0-44.8 21.344-52.608 29.504a33.408 33.408 0 0 1-36.16 7.456l-0.832-0.224-66.112-36.352-0.64-0.448a30.016 30.016 0 0 1-10.24-36.288c0.096-0.096 5.76-13.408 5.76-25.44 0-36.64-29.76-66.432-66.4-66.432h-2.208c-10.656 0.32-19.392-9.12-22.208-23.712-0.224-1.216-5.344-28.608-5.344-50.112 0-21.568 5.12-48.96 5.344-50.08 2.752-14.464 11.264-23.808 21.792-23.808h2.624c36.64 0 66.432-29.76 66.432-66.4 0-12.096-5.76-25.28-5.76-25.408a30.08 30.08 0 0 1 10.08-36.352l0.64-0.384 62.72-35.104 0.64-0.288a33.024 33.024 0 0 1 36.352 7.584c7.328 8 32.896 30.816 53.376 30.816 20.64 0 45.824-22.624 53.76-31.36a32.864 32.864 0 0 1 36.224-7.872l0.672 0.288 64.896 36.096 0.64 0.448a30.08 30.08 0 0 1 10.112 36.288c-0.032 0.128-5.76 13.44-5.76 25.472 0 36.608 29.792 66.4 66.432 66.4h2.24c10.656-0.224 19.392 9.12 22.176 23.744 0.224 1.152 5.376 28.512 5.376 50.08 0 21.536-5.088 48.896-5.312 50.048z m-251.328-138.272a88.64 88.64 0 0 0-88.512 88.48 88.64 88.64 0 0 0 88.512 88.512 88.64 88.64 0 0 0 88.48-88.512 88.64 88.64 0 0 0-88.48-88.48zM510.08 450.88c-28.16 0-51.2-22.976-51.2-51.2 0-28.224 22.976-51.2 51.2-51.2 28.224 0 51.2 22.912 51.2 51.2a51.264 51.264 0 0 1-51.2 51.2z"  horiz-adv-x="1024" />

    
    <glyph glyph-name="-tree-close" unicode="&#58916;" d="M141.45408 896h682.666667v-1024H141.45408zM141.45408 725.333333m42.666667 0l597.333333 0q42.666667 0 42.666667-42.666666l0-597.333334q0-42.666667-42.666667-42.666666l-597.333333 0q-42.666667 0-42.666667 42.666666l0 597.333334q0 42.666667 42.666667 42.666666ZM464.120747 367.46666700000003h160c1.472 0 2.666667-2.133333 2.666666-4.736v-33.194667c0-2.602667-1.194667-4.736-2.666666-4.736h-160c-1.472 0-2.666667 2.133333-2.666667 4.736v33.194667c0 2.602667 1.194667 4.736 2.666667 4.736zM461.45408 440.256c0 2.624 1.194667 4.757333 2.666667 4.757333h160c1.472 0 2.666667-2.133333 2.666666-4.757333v-33.173333c0-2.602667-1.194667-4.736-2.666666-4.736h-160c-1.472 0-2.666667 2.133333-2.666667 4.736v33.173333z m162.837333-192.256H334.73408c-1.642667 0-2.986667 2.133333-2.986667 4.736v33.194667c0 2.602667 1.344 4.736 2.986667 4.736h289.557333c1.642667 0 2.986667-2.133333 2.986667-4.736v-33.194667c0-2.602667-1.344-4.736-2.986667-4.736z m0 229.333333H334.73408c-1.642667 0-2.986667 2.133333-2.986667 4.736v33.194667c0 2.602667 1.344 4.736 2.986667 4.736h289.557333c1.642667 0 2.986667-2.133333 2.986667-4.736v-33.194667c0-2.602667-1.344-4.736-2.986667-4.736zM335.11808 387.349333l76.608 59.712c2.837333 2.24 7.061333 0.234667 7.061333-3.349333v-119.424c0-3.584-4.16-5.589333-7.04-3.349333l-76.629333 59.733333a4.202667 4.202667 0 0 0 0 6.677333z"  horiz-adv-x="1024" />

    
    <glyph glyph-name="icon-shouqitiaojian" unicode="&#58917;" d="M452.032 832A388.544 388.544 0 0 1 64 443.968a388.544 388.544 0 0 1 388.032-388.096c79.616 0 154.24 24.896 216.448 64.64 42.24 27.392 77.12 64.704 106.944 104.512a384.256 384.256 0 0 1 67.2 216.448C837.632 657.856 665.984 832 452.032 832z m34.88-241.28A182.592 182.592 0 0 1 305.28 409.088c0-34.816-29.824-64.64-64.64-64.64s-64.64 27.328-64.64 64.64a311.04 311.04 0 0 0 310.912 310.976c34.816 0 64.64-29.888 64.64-64.64 0-34.88-27.328-64.704-64.64-64.704zM874.944-63.552a94.656 94.656 0 0 0-42.24 19.904l-276.16 273.664c-29.824 29.824-29.824 77.12 0 104.448 29.824 29.888 77.12 29.888 104.448 0l276.16-273.6c29.824-29.888 29.824-77.12 0-104.512a81.92 81.92 0 0 0-62.208-19.84z"  horiz-adv-x="1024" />

    
    <glyph glyph-name="-set-query" unicode="&#58918;" d="M920.96 28.991999999999962l-145.92 145.984a379.776 379.776 0 0 1-26.048 509.056c-147.968 148.096-388.416 148.096-536.96 0-148.16-148.608-148.16-389.056 0-537.024a379.776 379.776 0 0 1 508.992-25.984l145.92-146.048c3.2-2.752 8.32-2.752 11.072 0l43.008 43.008c2.752 2.688 2.752 7.808 0 11.008z m-224.96 171.008a304.128 304.128 0 0 0-430.016 430.016 304.128 304.128 0 0 0 430.016-430.016z"  horiz-adv-x="1024" />

    
    <glyph glyph-name="icon-tuichuquanping" unicode="&#58919;" d="M0 896m64 0l896 0q64 0 64-64l0-896q0-64-64-64l-896 0q-64 0-64 64l0 896q0 64 64 64ZM362.336 513.6v-256.672c0-9.888 7.392-19.744 19.744-19.744h256.704a19.456 19.456 0 0 1 19.744 19.744V513.6a19.456 19.456 0 0 1-19.744 19.744H382.08c-12.352 0-19.744-7.424-19.744-19.744zM734.016 238.08h81.44v49.344h-88.864c-22.208 0-39.488-17.28-39.488-39.488v-88.864h49.376v78.976h-2.464z m-9.984 239.104h88.864v49.376h-81.472V608h-49.376v-91.328c2.496-22.208 19.776-39.488 41.984-39.488zM288.288 528.448H206.816v-49.376h91.328c22.208 0 39.488 17.28 39.488 39.488V607.424H288.32v-78.976zM285.824 159.04h49.344v88.864c0 22.208-17.28 39.488-39.488 39.488H206.816v-49.376h79.008v-78.976z"  horiz-adv-x="1024" />

    
    <glyph glyph-name="icon-xiazai" unicode="&#58921;" d="M0 896m64 0l896 0q64 0 64-64l0-896q0-64-64-64l-896 0q-64 0-64 64l0 896q0 64 64 64ZM442.4 639.872v-183.072h-91.52l152.544-183.072 152.576 183.072h-91.52V639.872zM320.32 189.12h366.144v-60.992H320.32z"  horiz-adv-x="1024" />

    
    <glyph glyph-name="icon-zhankai-shu" unicode="&#58922;" d="M796.842667 516.949333L524.458667 219.904a21.333333 21.333333 0 0 0-31.488 0L220.672 516.949333a21.333333 21.333333 0 0 0 15.701333 35.84h544.682667a21.333333 21.333333 0 0 0 15.786667-35.84z"  horiz-adv-x="1024" />

    
    <glyph glyph-name="-tree-set" unicode="&#58924;" d="M959.104 399.36V473.984a11.072 11.072 0 0 1-11.328 11.008h-92.48c-54.656 0-67.776 34.048-29.888 72.512 37.952 38.464 66.88 65.664 66.88 65.664a12.224 12.224 0 0 1 0 16.384s-25.088 26.88-62.08 63.552a13224.96 13224.96 0 0 1-63.232 62.336 12.224 12.224 0 0 1-16.448 0s-29.824-26.88-68.032-65.6c-38.144-38.784-71.872-25.664-71.872 29.824V820.992A11.008 11.008 0 0 1 600.96 832H422.08a11.008 11.008 0 0 1-11.008-11.008v-91.008c0-54.656-29.824-67.456-69.504-29.888-39.68 37.632-65.92 65.344-65.92 65.344a11.904 11.904 0 0 1-16.448 0s-25.984-24.448-62.976-61.12c-36.992-36.736-62.08-63.296-62.08-63.296a12.224 12.224 0 0 1 0-16.384s27.2-29.824 65.92-68.352c38.848-38.464 25.088-72.768-29.76-72.768H76.544C64 483.776 64 473.92 64 473.92v-174.208c0-6.272 5.12-11.328 11.328-11.328H170.88c54.592 0 67.712-32.512 29.824-71.04L134.4 150.784a11.648 11.648 0 0 1 0-16.064s25.408-26.24 62.08-62.976c36.672-36.672 63.232-61.76 63.232-61.76 4.48-4.288 11.648-4.288 16.128 0l65.664 65.024c38.784 38.528 69.504 25.664 69.504-29.824v-98.752a11.328 11.328 0 0 1 11.008-9.536h176.64c6.272 0 11.328 5.12 11.328 11.328v98.752c0 54.592 33.472 67.776 72.256 29.824 38.784-37.888 68.032-67.072 68.032-67.072a12.224 12.224 0 0 1 16.384 0s26.56 25.344 63.232 62.08c36.736 36.672 62.4 63.232 62.4 63.232a11.648 11.648 0 0 1 0 16.064l-65.344 64.768c-38.528 38.464-25.664 68.608 29.824 68.608h92.48a11.328 11.328 0 0 1 9.856 10.432V399.36z m-447.552-182.016a168 168 0 1 0 167.68 167.104 168 168 0 0 0-167.68-167.36v0.256z"  horiz-adv-x="1024" />

    
    <glyph glyph-name="-yiban" unicode="&#58926;" d="M668.672 180.42880000000002l38.912-48.0256a40.0896 40.0896 0 0 1 56.32-5.9904l91.1872 73.8304a40.0896 40.0896 0 0 1-50.4832 62.3104l-60.0576-48.64-13.6704 16.896a40.0384 40.0384 0 1 1-62.208-50.3808m87.9104 226.0992a207.872 207.872 0 0 0 207.872-207.4624c0-18.944-2.816-37.0688-7.5264-54.4768a207.9744 207.9744 0 0 0-200.3456-153.088 207.9232 207.9232 0 0 0-207.872 207.5648 207.8208 207.8208 0 0 0 170.8544 203.9808c12.1856 2.304 24.576 3.4304 37.0176 3.4816zM724.2752 733.0304v22.2208a38.5024 38.5024 0 0 1-39.0144 38.0416 38.5024 38.5024 0 0 1-39.0144-38.0416v-22.2208H319.2832v22.2208c0 20.992-17.408 38.0416-38.9632 38.0416a38.5024 38.5024 0 0 1-39.0144-38.0416v-22.2208H141.4144A38.5024 38.5024 0 0 1 102.4 694.9888v-572.0576c0-20.992 17.408-38.0416 39.0144-38.0416h368.4352a266.1376 266.1376 0 0 0-33.1776 128.8192c0 150.6816 125.696 273.3056 280.1152 273.3056 45.056 0 87.4496-10.6496 125.1328-29.184 0.1536 1.1776 0.4096 2.304 0.4096 3.5328V694.9888a38.5536 38.5536 0 0 1-39.0144 38.0416l-104.7552 0.5632-14.336-0.512z"  horiz-adv-x="1024" />

    
    <glyph glyph-name="icon-zhankaitiaojian" unicode="&#58928;" d="M435.84 431.04H108.8a44.928 44.928 0 0 0-44.8 44.8V787.2c0 24.64 20.16 44.8 44.8 44.8h327.04c24.64 0 44.8-20.16 44.8-44.8v-311.36c0-24.64-20.16-44.8-44.8-44.8z m0-495.04H108.8a44.928 44.928 0 0 0-44.8 44.8V292.16c0 24.64 20.16 44.8 44.8 44.8h327.04c24.64 0 44.8-20.16 44.8-44.8V-19.2c0-24.64-20.16-44.8-44.8-44.8z m477.12 0h-327.04a44.928 44.928 0 0 0-44.8 44.8V292.16c0 24.64 20.16 44.8 44.8 44.8h327.04c24.64 0 44.8-20.16 44.8-44.8V-19.2c0-24.64-20.16-44.8-44.8-44.8z m-219.52 591.36a150.08 150.08 0 1 0 0 300.16 150.08 150.08 0 0 0 0-300.16z m0 232.96c-44.8 0-82.88-35.84-82.88-82.88 0-47.04 35.84-82.88 82.88-82.88 47.04 0 82.88 38.08 82.88 82.88s-38.08 82.88-82.88 82.88zM944.32 446.72c-13.44-15.68-38.08-15.68-53.76-2.24l-125.44 116.48c-15.68 13.44-15.68 38.08-2.24 53.76s38.08 15.68 53.76 2.24l125.44-116.48c15.68-15.68 17.92-38.08 2.24-53.76z"  horiz-adv-x="1024" />

    
    <glyph glyph-name="icon-shuaxin" unicode="&#58930;" d="M0 896m64 0l896 0q64 0 64-64l0-896q0-64-64-64l-896 0q-64 0-64 64l0 896q0 64 64 64ZM636.992 542.432a223.488 223.488 0 1 1 59.584-213.632h-59.584a167.776 167.776 0 1 0-157.952 223.168 165.376 165.376 0 0 0 119.2-48.256l-89.408-89.408h193.696V608l-65.536-65.568zM636.992 542.432a223.488 223.488 0 1 1 59.584-213.632h-59.584a167.776 167.776 0 1 0-157.952 223.168 165.376 165.376 0 0 0 119.2-48.256l-89.408-89.408h193.696V608l-65.536-65.568z"  horiz-adv-x="1024" />

    
    <glyph glyph-name="-edu" unicode="&#58931;" d="M510.5664 793.6c56.3712 0 109.4656-10.752 159.1296-32.256 49.664-21.504 93.0816-50.688 129.9968-87.6544A413.5936 413.5936 0 0 0 887.296 543.744c21.504-49.664 32.256-102.7584 32.256-159.1808 0-56.3712-10.752-109.4144-32.256-159.1296-21.504-49.664-50.688-93.0304-87.6032-129.9456a408.1152 408.1152 0 0 0-130.048-87.2448 401.2032 401.2032 0 0 0-159.0784-31.7952 397.312 397.312 0 0 0-141.7216 25.2416 425.0624 425.0624 0 0 0-120.7808 69.7856l99.4816 211.968 33.9456-54.9888a963.9424 963.9424 0 0 1 44.4416-67.9424l17.8688-22.6816a33.1264 33.1264 0 0 1 23.0912-12.288c12.288-1.6896 20.992 0.4608 26.112 6.6048 5.2736 6.144 11.0592 14.0288 17.4592 23.9616 1.7408 2.304 5.12 8.448 9.984 18.2784 4.9152 9.9328 10.9056 22.0672 17.92 36.6592 6.9632 14.592 14.7968 30.72 23.552 48.384 8.704 17.664 17.408 35.84 26.112 54.528l68.0448 143.872 92.4672-49.664-37.4784 269.4144L473.9072 531.9680000000001l103.7312-35.7888-109.8752-225.8944c-16.7936 27.3408-31.3856 51.2-43.6224 71.5264-5.2736 8.704-10.3424 16.9984-15.2576 24.832a1465.7024 1465.7024 0 0 0-12.6976 20.5312l-7.8336 13.1072c2.304-4.608 2.4576-5.3248 0.4096-2.1504a220.1088 220.1088 0 0 1-25.7024 30.976c-5.7856 5.7856-11.264 8.704-16.5376 8.704-13.4144 0-22.9888-3.3792-28.8256-10.0352a83.0976 83.0976 0 0 1-13.9776-23.0912c-1.1264-2.3552-4.096-8.5504-8.704-18.7392-4.6592-10.1376-10.752-22.8352-18.2784-37.888-7.6288-15.1552-15.7184-32.0512-24.4224-50.5856l-27.9552-54.0672c-8.704-18.6368-17.152-36.352-25.2928-53.248-8.0896-16.7936-15.0528-31.1296-20.9408-42.7008A399.5136 399.5136 0 0 0 102.4 384.5632a400.896 400.896 0 0 0 31.8464 159.1808 409.088 409.088 0 0 0 87.1936 129.9456A413.5936 413.5936 0 0 0 351.4368 761.344C401.1008 782.848 454.144 793.6 510.5664 793.6z"  horiz-adv-x="1024" />

    
    <glyph glyph-name="-base-info-icon" unicode="&#58883;" d="M512 384m-512 0a512 512 0 1 1 1024 0 512 512 0 1 1-1024 0ZM738.133333 274.773333l-199.68-119.466666c-6.826667-3.413333-13.653333-5.12-20.48-5.12-6.826667 0-13.653333 1.706667-20.48 5.12l-199.68 119.466666c-10.24 6.826667-10.24 17.066667 0 23.893334l34.133334 20.48 153.6-92.16c8.533333-5.12 20.48-8.533333 32.426666-8.533334s22.186667 3.413333 32.426667 8.533334l153.6 92.16 34.133333-20.48c10.24-6.826667 10.24-17.066667 0-23.893334zM738.133333 366.93333299999995l-199.68-119.466666c-6.826667-3.413333-13.653333-5.12-20.48-5.12-6.826667 0-13.653333 1.706667-20.48 5.12l-199.68 119.466666c-10.24 6.826667-10.24 17.066667 0 23.893334l34.133334 20.48 153.6-92.16c8.533333-5.12 20.48-8.533333 32.426666-8.533334s22.186667 3.413333 32.426667 8.533334l153.6 92.16 34.133333-20.48c10.24-6.826667 10.24-18.773333 0-23.893334zM738.133333 457.386667l-199.68-119.466667c-6.826667-3.413333-13.653333-5.12-20.48-5.12-6.826667 0-13.653333 1.706667-20.48 5.12l-199.68 119.466667c-10.24 6.826667-10.24 17.066667 0 23.893333l199.68 119.466667c5.12 3.413333 11.946667 5.12 20.48 5.12 6.826667 0 13.653333-1.706667 20.48-5.12l199.68-119.466667c10.24-6.826667 10.24-17.066667 0-23.893333z"  horiz-adv-x="1024" />

    
    <glyph glyph-name="-complex-seach-icon" unicode="&#58884;" d="M512 384m-512 0a512 512 0 1 1 1024 0 512 512 0 1 1-1024 0ZM742.877867 203.99786700000004c4.539733-5.290667 7.048533-9.813333 7.304533-13.585067 0.512-3.771733-1.024-7.304533-4.522667-10.820267a10.1376 10.1376 0 0 0-7.304533-3.515733 26.624 26.624 0 0 0-9.557333 1.757867 66.4064 66.4064 0 0 0-9.557334 4.522666c-3.0208 2.013867-5.7856 3.771733-8.0384 5.802667l-33.450666 29.917867c-9.045333-5.290667-18.602667-9.045333-28.672-11.3152a111.650133 111.650133 0 0 0-30.190934-2.7648 87.227733 87.227733 0 0 0-29.422933 7.287466 83.2 83.2 0 0 0-25.9072 18.107734 83.114667 83.114667 0 0 0-20.1216 29.422933 88.610133 88.610133 0 0 0-6.792533 33.706667c0 11.5712 2.269867 22.8864 6.792533 33.706666a89.992533 89.992533 0 0 0 20.138667 29.678934 88.354133 88.354133 0 0 0 29.917866 19.626666 94.634667 94.634667 0 0 0 33.962667 6.519467c11.554133 0 22.869333-2.2528 34.184533-6.536533 11.332267-4.266667 21.384533-10.820267 30.446934-19.626667 7.543467-7.7824 13.568-16.5888 17.851733-26.146133 4.266667-9.557333 7.048533-19.370667 7.799467-29.422934 0.750933-10.069333 0-19.8656-2.525867-29.934933a84.48 84.48 0 0 0-11.810133-27.648l18.363733-17.6128c4.778667-4.778667 9.301333-9.0624 13.312-13.346133 3.7888-3.754667 6.5536-6.280533 7.799467-7.7824z m-114.688 34.952533c7.560533 0 14.592 1.501867 21.128533 4.266667a50.210133 50.210133 0 0 1 17.1008 11.5712c5.034667 4.778667 8.8064 10.581333 11.5712 17.117866 3.0208 6.536533 4.266667 13.568 4.266667 21.111467 0 7.560533-1.501867 14.592-4.266667 20.8896a55.893333 55.893333 0 0 1-11.5712 16.8448 50.210133 50.210133 0 0 1-17.1008 11.5712 53.725867 53.725867 0 0 1-21.128533 4.266667c-7.287467 0-14.336-1.501867-21.111467-4.266667a54.510933 54.510933 0 0 1-28.928-28.416c-3.0208-6.5536-4.266667-13.585067-4.266667-20.8896 0-7.543467 1.501867-14.574933 4.266667-21.111467 2.7648-6.5536 6.536533-12.3392 11.5712-17.117866 5.0176-5.0176 10.564267-8.789333 17.3568-11.554134 6.536533-2.781867 13.568-4.266667 21.111467-4.266666zM414.6688 545.5360000000001h89.0368c10.308267 0 19.114667 9.813333 19.114667 21.640533 0 12.066133-8.8064 21.623467-19.626667 21.623467h-88.5248c-10.820267 0-19.626667-9.557333-19.626667-21.623467 0-12.0832 8.8064-21.640533 19.626667-21.640533zM501.691733 287.23199999999997h-139.605333c-7.031467 0-14.062933 8.567467-14.062933 15.854933a13.312 13.312 0 0 0 13.073066 13.073067h143.872a131.140267 131.140267 0 0 0 22.1184 48.042667h-164.232533c-7.048533 0-11.5712 7.543467-11.5712 14.592 0 7.031467 6.0416 14.08 13.073067 14.08h192.4096a127.197867 127.197867 0 0 0 73.437866 22.8864c6.0416 0 12.0832-0.512 17.8688-1.262934v110.165334c0 29.422933-15.854933 49.800533-49.0496 49.800533H555.008a34.133333 34.133333 0 0 0 0.750933-7.287467c0-18.107733-13.073067-36.215467-28.928-36.215466h-135.560533c-16.5888 0-29.678933 17.851733-29.678933 36.215466 0 2.5088 0.256 4.778667 0.768 7.287467h-44.526934c-35.959467 0-44.765867-20.3776-44.765866-49.800533v-290.747734c0-31.4368 12.578133-49.032533 47.274666-49.032533h232.157867a128.768 128.768 0 0 0-50.807467 102.365867z m-137.335466 184.866133h191.146666c7.048533 0 13.090133-6.536533 13.585067-14.08 0-7.048533-7.543467-14.592-14.574933-14.592H362.5984c-7.031467 0-11.5712 7.543467-11.5712 14.592 0.512 7.031467 6.2976 14.08 13.329067 14.08z"  horiz-adv-x="1024" />

    
    <glyph glyph-name="-budget-adjust-icon" unicode="&#58885;" d="M512 384m-512 0a512 512 0 1 1 1024 0 512 512 0 1 1-1024 0ZM657.322667 229.59786699999995V559.445333c-0.324267 7.458133-1.621333 19.7632-9.386667 27.5456-5.512533 5.495467-13.6192 8.0896-24.302933 8.0896-22.033067 0-33.058133-16.520533-33.058134-49.237333v-60.586667c0-7.458133-6.144-13.943467-13.9264-13.943466H320.699733v-226.474667c0-37.888 24.285867-68.676267 62.208-68.676267h6.485334l287.061333 0.324267c-11.997867 11.9808-19.114667 30.446933-19.114667 53.128533z m-78.08 56.3712H399.104a16.5888 16.5888 0 0 0-16.520533 16.5376c0 9.0624 7.441067 16.520533 16.520533 16.520533H579.242667c9.079467 0 16.520533-7.458133 16.520533-16.520533a16.5888 16.5888 0 0 0-16.520533-16.5376z m0 88.132266H399.104a16.5888 16.5888 0 0 0-16.520533 16.520534c0 9.079467 7.441067 16.5376 16.520533 16.5376H579.242667c9.079467 0 16.520533-7.458133 16.520533-16.5376a16.5888 16.5888 0 0 0-16.520533-16.520534z m105.949866-144.503466c0-12.305067 3.242667-41.472 32.392534-41.472 11.997867 0 19.456 4.864 24.302933 11.025066 3.242667 5.1712 5.8368 11.008 7.133867 17.169067v0.648533c0 0.648533 0.324267 1.621333 0.324266 2.269867 0.324267 3.242667 0.648533 6.144 0.648534 8.0896v81.9712a9.216 9.216 0 0 1-9.386667 9.386667h-55.415467v-89.088zM282.453333 498.858667h280.576v46.6432c0 45.3632 20.104533 73.557333 54.442667 76.458666a52.736 52.736 0 0 1-10.0352 0.9728h-284.16C295.765333 622.933333 273.066667 602.1973330000001 273.066667 576.5973329999999v-70.621866c0-3.242667 3.8912-7.133867 9.386666-7.133867z"  horiz-adv-x="1024" />

    
    <glyph glyph-name="-project-lib-icon" unicode="&#58886;" d="M512 384m-512 0a512 512 0 1 1 1024 0 512 512 0 1 1-1024 0ZM690.5856 525.6192c16.264533 0 31.505067-6.109867 42.666667-17.271467a59.886933 59.886933 0 0 0 17.271466-42.666666v-238.728534a60.040533 60.040533 0 0 0-59.938133-59.938133H333.0048a59.886933 59.886933 0 0 0-42.666667 17.271467 59.886933 59.886933 0 0 0-17.271466 42.666666v298.666667h417.518933z m-26.402133-228.573867h-59.938134c-13.2096 0-20.309333-6.0928-20.309333-20.309333 0-13.226667 7.099733-20.3264 20.309333-20.3264h59.938134c13.192533 0 20.309333 7.099733 20.309333 20.309333s-7.1168 20.309333-20.309333 20.309334zM312.6784 566.2549329999999v-39.6288h178.807467V566.2719999999999H312.661333z m-39.611733 0c0 10.154667 4.061867 20.309333 11.178666 28.433067 7.099733 7.1168 17.271467 11.178667 28.433067 11.178667h179.8144c10.154667 0 20.309333-4.061867 28.450133-11.178667 7.099733-7.099733 11.178667-17.271467 11.178667-28.433067v-39.6288c0-10.154667-4.078933-20.309333-11.178667-28.450133-7.1168-7.099733-17.271467-11.1616-28.450133-11.1616H312.6784c-10.154667 0-20.309333 4.061867-28.433067 11.1616-7.1168 7.1168-11.178667 17.271467-11.178666 28.450133V566.2719999999999z"  horiz-adv-x="1024" />

    
    <glyph glyph-name="-budget-exec-icon" unicode="&#58887;" d="M512 384m-512 0a512 512 0 1 1 1024 0 512 512 0 1 1-1024 0ZM712.533333 458.018133h-63.351466v84.48H353.501867v-295.68h84.48v-63.351466H290.133333V605.866667h422.4zM620.202667 318.37866699999995l111.479466-111.479467-42.581333-42.581333-111.7184 111.7184-54.101333-113.169067-64.8192 259.310933a12.680533 12.680533 0 0 0 15.36 15.36l259.310933-64.8192-112.930133-54.340266z"  horiz-adv-x="1024" />

    
    <glyph glyph-name="-budget-pro-icon" unicode="&#58891;" d="M512 384m-512 0a512 512 0 1 1 1024 0 512 512 0 1 1-1024 0ZM438.340267 622.933333h146.551466c7.714133 0 13.499733-5.7856 13.499734-13.499733 0-1.928533 0-3.857067-1.928534-5.7856l-19.285333-38.570667c-1.928533-3.857067-7.714133-7.714133-11.5712-7.714133h-109.909333c-3.857067 0-9.642667 3.857067-11.5712 7.714133l-19.285334 38.570667c-3.857067 5.7856 0 15.428267 5.7856 17.3568 3.857067 1.928533 5.7856 1.928533 7.714134 1.928533zM687.104 594.0053330000001H648.533333c-7.714133 0-15.428267-3.857067-21.213866-9.642666l-30.856534-52.053334c-5.7856-5.802667-13.482667-7.7312-21.213866-7.7312H448c-7.714133 0-13.499733 1.928533-19.285333 7.714134l-30.856534 53.998933c-5.802667 5.802667-13.499733 7.714133-21.213866 7.714133h-40.4992c-15.428267 0-28.928-13.482667-28.928-28.928v-374.101333c0-15.445333 13.499733-28.945067 28.928-28.945067H687.104c15.428267 0 28.928 13.499733 28.928 28.928V565.077333c0 15.428267-13.499733 28.928-28.928 28.928zM559.8208 300.88533299999995c0-5.7856-5.7856-11.5712-13.482667-11.5712h-152.354133c-7.714133 0-13.499733 5.7856-13.499733 11.5712v17.3568c0 5.7856 5.7856 11.5712 13.482666 11.5712h152.354134c7.714133 0 13.499733-5.802667 13.499733-11.5712v-17.3568z m82.926933 107.997867c0-5.802667-5.7856-11.5712-13.482666-11.5712H393.966933c-7.714133 0-13.499733 5.7856-13.499733 11.5712v17.3568c0 5.7856 5.7856 11.5712 13.482667 11.5712H629.248c7.714133 0 13.499733-5.802667 13.499733-11.5712v-17.3568z"  horiz-adv-x="1024" />

    
    <glyph glyph-name="-budget-reply-icon" unicode="&#58892;" d="M512 384m-512 0a512 512 0 1 1 1024 0 512 512 0 1 1-1024 0ZM496.64 176.34986700000002c3.601067-7.4752 0.648533-13.704533-6.5536-15.0528-5.051733-0.170667-10.154667-0.273067-15.3088-0.273067-101.751467 0-184.2176 35.498667-184.2176 79.274667v87.0912c0-43.776 82.466133-79.2576 184.2176-79.2576 10.922667 0 21.640533 0.4096 32.068267 1.194666a66.116267 66.116267 0 0 1-10.222934-72.977066zM541.764267 335.18933300000003c-0.802133-14.882133 2.525867-29.696 9.608533-42.8032a399.018667 399.018667 0 0 0-76.629333-7.168c-101.751467 0-184.234667 35.4816-184.234667 79.2576v97.416534c0-43.776 82.4832-79.2576 184.2176-79.2576 36.7616 0 70.997333 4.625067 99.754667 12.629333-18.5856-14.421333-31.470933-36.437333-32.7168-60.074667z m117.213866 126.702934v-47.138134a10.5984 10.5984 0 0 0-12.731733-5.956266 81.493333 81.493333 0 0 1-28.2624 3.242666c25.634133 13.585067 40.994133 30.941867 40.994133 49.851734zM658.978133 496.64c0-43.861333-82.4832-79.445333-184.2176-79.445333S290.542933 452.778667 290.542933 496.64v29.7984c0 43.861333 82.4832 79.428267 184.2176 79.428267s184.2176-35.549867 184.2176-79.428267V496.64zM688.776533 249.66826700000001h-12.714666a8.277333 8.277333 0 0 0-7.3728 4.573866l-9.608534 19.2a10.666667 10.666667 0 0 0 2.542934 12.8 58.9312 58.9312 0 0 1 20.394666 44.373334 59.2896 59.2896 0 0 1-58.248533 59.392 59.0848 59.0848 0 0 1-39.560533-103.7312c3.703467-3.1744 4.7616-8.482133 2.577066-12.8512l-9.728-19.421867a7.8336 7.8336 0 0 0-6.980266-4.334933h-13.073067c-23.995733 0-44.032-18.824533-44.834133-42.786134a44.322133 44.322133 0 0 1 44.288-45.858133h132.949333a44.322133 44.322133 0 0 1 44.270933 42.205867c1.194667 25.3952-19.490133 46.421333-44.885333 46.421333z"  horiz-adv-x="1024" />

    
    <glyph glyph-name="-account-check-icon" unicode="&#58893;" d="M512 384m-512 0a512 512 0 1 1 1024 0 512 512 0 1 1-1024 0ZM273.066667 186.00959999999998a15.650133 15.650133 0 0 0 15.547733 15.530667h445.781333a15.547733 15.547733 0 0 0 0-31.095467h-445.781333A15.547733 15.547733 0 0 0 273.066667 186.02666699999997zM330.069333 186.00959999999998V564.394667a26.026667 26.026667 0 0 0 25.941334 25.924266h207.325866a26.026667 26.026667 0 0 0 25.924267-25.924266V186.02666699999997H330.0864z m134.792534 62.190933h93.303466v62.208h-93.303466v-62.208z m-103.68 0h93.303466v62.208h-93.303466v-62.208z m103.68 103.68h93.303466v62.190934h-93.303466v-62.190934z m-103.68 0h93.303466v62.190934h-93.303466v-62.190934z m103.68 103.662934h93.303466v62.208h-93.303466v-62.208z m-103.68 0h93.303466v62.208h-93.303466v-62.208zM563.336533 574.7712a10.359467 10.359467 0 0 0 10.376534-10.376533v-31.095467H345.634133v-93.303467h228.078934v-10.359466H345.634133v-93.303467h228.078934v-10.376533H345.634133v-93.303467h228.078934v-31.095467H345.634133V564.394667a10.359467 10.359467 0 0 0 10.376534 10.376533h207.325866m0 31.095467H356.010667a41.472 41.472 0 0 1-41.472-41.472v-393.949867h290.269866V564.394667a41.472 41.472 0 0 1-41.472 41.472z m-82.944-134.775467v31.112533h62.208v-31.112533H480.426667z m-103.662933 0v31.112533h62.208v-31.112533h-62.208z m103.68-103.662933V398.506667h62.190933v-31.095467H480.426667z m-103.68 0V398.506667h62.208v-31.095467h-62.208z m103.68-103.68v31.112533h62.190933v-31.112533H480.426667z m-103.68 0v31.112533h62.208v-31.112533h-62.208zM667.016533 512.5632a10.359467 10.359467 0 0 0 10.359467-10.359467V201.55733299999997h-93.303467V512.5632h82.944m0 31.095467H552.96v-373.213867h155.511467V502.203733a41.472 41.472 0 0 1-41.472 41.472z"  horiz-adv-x="1024" />

    
    <glyph glyph-name="-report-icon" unicode="&#58894;" d="M512 384m-512 0a512 512 0 1 1 1024 0 512 512 0 1 1-1024 0ZM581.154133 438.5792h94.549334c10.632533 0 18.619733 7.9872 18.619733 18.6368 0 10.6496-7.9872 18.6368-18.6368 18.6368h-94.549333c-10.6496 0-18.6368-7.9872-18.6368-18.6368 0-10.6496 7.9872-18.6368 18.653866-18.6368z m0-75.895467h94.549334c10.632533 0 18.619733 7.9872 18.619733 18.6368 0 10.6496-7.9872 18.6368-18.6368 18.6368h-94.549333c-10.6496 0-18.6368-7.9872-18.6368-18.6368 0-10.6496 7.9872-18.6368 18.653866-18.6368z m0-75.912533h94.549334c10.632533 0 18.619733 8.004267 18.619733 18.653867s-7.9872 18.6368-18.6368 18.6368h-94.549333c-10.6496 0-18.6368-7.9872-18.6368-18.6368 0-10.6496 7.9872-18.653867 18.653866-18.653867zM732.945067 571.733333H277.5552A38.638933 38.638933 0 0 1 238.933333 533.111467V228.181333a38.638933 38.638933 0 0 1 38.621867-38.6048h456.721067a38.638933 38.638933 0 0 1 38.621866 38.6048V533.111467C771.566933 554.427733 754.244267 571.733333 732.945067 571.733333zM486.6048 382.63466700000004c0-3.976533-2.6624-6.656-6.656-7.970134l-22.6304-3.9936a5.7344 5.7344 0 0 1-5.341867-5.3248c-1.3312-2.6624-1.3312-3.9936-2.6624-6.656a8.482133 8.482133 0 0 1 0-8.004266l13.312-19.968a8.192 8.192 0 0 0-1.314133-9.3184l-11.997867-11.9808a8.192 8.192 0 0 0-9.3184-1.3312l-19.968 13.312a8.4992 8.4992 0 0 1-7.9872 0c-1.3312-1.3312-3.9936-1.3312-6.656-2.6624a10.410667 10.410667 0 0 1-5.3248-5.3248l-2.6624-21.316267c-1.3312-3.9936-3.9936-5.3248-6.656-5.3248H373.418667c-3.9936 0-6.656 2.6624-7.9872 6.656l-3.9936 22.647467a5.7344 5.7344 0 0 1-5.3248 5.3248c-2.6624 1.3312-3.9936 1.3312-6.656 2.6624a8.482133 8.482133 0 0 1-7.9872 0l-19.968-13.312a8.192 8.192 0 0 0-9.335467 1.3312l-11.9808 11.9808a8.192 8.192 0 0 0-1.3312 9.3184l13.312 19.968a8.4992 8.4992 0 0 1 0 8.004266c-1.3312 1.3312-1.3312 3.9936-2.6624 6.656a10.410667 10.410667 0 0 1-5.3248 5.3248l-22.6304 3.9936c-3.9936 1.3312-5.3248 3.9936-5.3248 6.656v17.3056c0 3.9936 2.6624 6.656 6.656 7.9872l22.6304 2.6624a5.7344 5.7344 0 0 1 5.3248 5.3248c1.3312 2.679467 1.3312 4.010667 2.6624 6.656a8.482133 8.482133 0 0 1 0 8.004267l-13.312 19.968c-1.3312 0-1.3312 3.9936 1.3312 6.656l11.9808 11.9808a8.192 8.192 0 0 0 9.3184 1.3312l19.968-13.312a8.482133 8.482133 0 0 1 8.004267 0c1.3312 1.3312 3.9936 1.3312 6.656 2.6624 1.3312 1.3312 2.6624 2.6624 3.9936 5.3248l3.9936 22.647467c1.3312 3.9936 3.9936 5.3248 6.656 5.3248h17.3056c4.010667 0 6.656-2.6624 8.004266-6.656l3.9936-22.647467c0-2.6624 2.6624-5.3248 5.3248-5.3248 2.6624-1.3312 3.9936-1.3312 6.656-2.6624a8.482133 8.482133 0 0 1 7.9872 0l19.968 13.312a8.192 8.192 0 0 0 9.3184-1.3312l11.997867-11.9808c1.3312-1.3312 2.6624-5.3248 0-7.9872l-13.312-19.968a8.482133 8.482133 0 0 1 0-7.9872c1.314133-1.3312 1.314133-4.010667 2.645333-6.656a10.410667 10.410667 0 0 1 5.341867-5.341867l22.6304-3.9936c3.9936-1.3312 5.3248-3.9936 5.3248-6.656v-15.9744h1.3312z m246.340267-153.122134h-209.066667v303.616h209.066667v-303.616zM381.405867 435.9168a44.885333 44.885333 0 0 1-45.2608-45.277867 44.885333 44.885333 0 0 1 45.2608-45.277866 44.885333 44.885333 0 0 1 45.277866 45.277866c0 11.9808-5.3248 22.6304-13.312 31.965867a46.506667 46.506667 0 0 1-31.965866 13.312z"  horiz-adv-x="1024" />

    
    <glyph glyph-name="-platform-config-icon" unicode="&#58895;" d="M512 384m-512 0a512 512 0 1 1 1024 0 512 512 0 1 1-1024 0ZM447.863467 312.32000000000005c-0.1536 1.7408-0.341333 3.413333-0.597334 5.154133v0.1536a61.149867 61.149867 0 0 1-0.989866 5.2224c-0.085333 0.341333-0.136533 0.682667-0.238934 1.041067a79.104 79.104 0 0 1-3.157333 10.222933c-0.0512 0.2048-0.1536 0.341333-0.2048 0.546134a79.223467 79.223467 0 0 1-41.9328 43.400533v0.0512a78.3872 78.3872 0 0 1-31.5904 6.621867c-11.264 0-21.930667-2.389333-31.607467-6.621867v-0.0512a79.530667 79.530667 0 0 1-41.9328-43.400533c-0.0512-0.2048-0.136533-0.341333-0.187733-0.546134a79.104 79.104 0 0 1-3.1744-10.222933c-0.085333-0.341333-0.136533-0.682667-0.238933-1.024a61.149867 61.149867 0 0 1-0.989867-5.239467v-0.170666c-0.238933-1.672533-0.443733-3.396267-0.597333-5.12-0.0512-0.443733-0.0512-0.887467-0.085334-1.3312a96.238933 96.238933 0 0 1-0.2048-5.393067c0-1.826133 0.1024-3.584 0.2048-5.376 0.034133-0.443733 0.034133-0.887467 0.085334-1.3312 0.1536-1.723733 0.341333-3.413333 0.597333-5.137067v-0.1536c0.256-1.774933 0.597333-3.498667 0.989867-5.2224 0.1024-0.341333 0.1536-0.682667 0.238933-1.041066 0.853333-3.515733 1.877333-6.912 3.1744-10.24l0.187733-0.529067a79.223467 79.223467 0 0 1 41.9328-43.400533v-0.0512a79.189333 79.189333 0 0 1 63.214934 0v0.0512a79.530667 79.530667 0 0 1 41.915733 43.400533c0.0512 0.2048 0.1536 0.341333 0.2048 0.546133 1.28 3.310933 2.321067 6.7072 3.157333 10.222934 0.1024 0.341333 0.1536 0.682667 0.238934 1.024 0.392533 1.7408 0.750933 3.464533 0.989866 5.239466v0.1536c0.256 1.672533 0.443733 3.413333 0.597334 5.12 0.0512 0.4608 0.0512 0.904533 0.1024 1.348267 0.085333 1.774933 0.187733 3.549867 0.187733 5.376 0 1.826133-0.1024 3.618133-0.187733 5.393067l-0.1024 1.3312z m-78.711467-101.512533a94.429867 94.429867 0 0 0-31.607467 5.4272v-29.525334c0-12.458667 9.728-22.5792 21.9648-23.261866l0.648534-0.0512h17.8688c0.256 0 0.4608 0.0512 0.699733 0.0512a23.296 23.296 0 0 1 21.981867 23.261866v29.525334c-9.8304-3.498667-20.497067-5.4272-31.573334-5.4272z m0 189.627733c11.0592 0 21.725867-1.928533 31.5904-5.4272v187.562667c0 12.424533-9.728 22.562133-21.9648 23.2448-0.256 0-0.443733 0.0512-0.682667 0.0512h-17.885866c-0.256 0-0.443733-0.0512-0.648534-0.0512a23.296 23.296 0 0 1-21.9648-23.261867v-187.562667a93.917867 93.917867 0 0 0 31.556267 5.444267zM590.08 470.357333c-0.136533 1.723733-0.341333 3.413333-0.580267 5.137067v0.1536a61.149867 61.149867 0 0 1-0.989866 5.239467l-0.256 1.024a79.104 79.104 0 0 1-3.157334 10.24c-0.0512 0.170667-0.1536 0.341333-0.2048 0.529066a79.223467 79.223467 0 0 1-41.915733 43.400534v0.0512a78.3872 78.3872 0 0 1-31.607467 6.621866c-11.264 0-21.930667-2.372267-31.607466-6.621866v-0.0512a79.530667 79.530667 0 0 1-41.915734-43.400534c-0.0512-0.2048-0.170667-0.341333-0.2048-0.546133a79.104 79.104 0 0 1-3.157333-10.222933l-0.256-1.024a61.149867 61.149867 0 0 1-0.989867-5.239467v-0.1536c-0.238933-1.672533-0.443733-3.413333-0.580266-5.12-0.0512-0.4608-0.0512-0.904533-0.1024-1.348267a96.238933 96.238933 0 0 1-0.2048-5.376c0-1.826133 0.1024-3.618133 0.2048-5.393066l0.1024-1.3312c0.136533-1.723733 0.341333-3.413333 0.580266-5.12v-0.170667c0.256-1.774933 0.597333-3.498667 0.989867-5.2224l0.256-1.024c0.836267-3.515733 1.877333-6.929067 3.157333-10.24 0.0512-0.187733 0.1536-0.341333 0.2048-0.546133a79.223467 79.223467 0 0 1 41.915734-43.400534v-0.0512a79.189333 79.189333 0 0 1 63.214933 0v0.0512a79.530667 79.530667 0 0 1 41.915733 43.400534c0.0512 0.2048 0.170667 0.341333 0.2048 0.546133 1.28 3.310933 2.321067 6.724267 3.157334 10.24l0.256 1.024c0.392533 1.723733 0.733867 3.447467 0.989866 5.239467v0.136533c0.238933 1.6896 0.443733 3.413333 0.580267 5.137067l0.1024 1.3312c0.1024 1.774933 0.2048 3.566933 0.2048 5.393066 0 1.826133-0.1024 3.584-0.2048 5.376l-0.1024 1.3312z m-78.711467 88.098134c11.0592 0 21.725867-1.928533 31.607467-5.4272v29.525333c0 12.458667-9.728 22.5792-21.981867 23.261867-0.238933 0-0.443733 0.0512-0.682666 0.0512h-17.885867c-0.238933 0-0.443733-0.0512-0.682667-0.0512a23.296 23.296 0 0 1-21.981866-23.261867v-29.525333a94.429867 94.429867 0 0 0 31.607466 5.4272z m0-189.610667a94.429867 94.429867 0 0 0-31.607466 5.410133v-187.562666c0-12.424533 9.728-22.562133 21.981866-23.2448 0.238933 0 0.443733-0.0512 0.682667-0.0512h17.885867c0.238933 0 0.443733 0.0512 0.682666 0.0512a23.296 23.296 0 0 1 21.981867 23.261866V374.27200000000005a94.429867 94.429867 0 0 0-31.607467-5.444267zM653.585067 242.41493300000002a94.429867 94.429867 0 0 0-31.607467 5.4272v-61.1328c0-12.458667 9.728-22.5792 21.981867-23.261866l0.648533-0.0512h17.8688c0.256 0 0.443733 0.0512 0.682667 0.0512a23.296 23.296 0 0 1 21.981866 23.261866v61.1328c-9.8304-3.498667-20.48-5.4272-31.556266-5.4272z m78.728533 101.5296c-0.170667 1.723733-0.341333 3.413333-0.597333 5.12v0.170667a61.149867 61.149867 0 0 1-0.989867 5.2224c-0.1024 0.341333-0.1536 0.682667-0.238933 1.024a79.104 79.104 0 0 1-3.1744 10.24c-0.0512 0.187733-0.136533 0.341333-0.187734 0.546133a79.223467 79.223467 0 0 1-41.9328 43.400534v0.0512a79.189333 79.189333 0 0 1-63.214933 0v-0.0512a79.530667 79.530667 0 0 1-41.915733-43.400534c-0.0512-0.2048-0.1536-0.341333-0.2048-0.546133a79.104 79.104 0 0 1-3.157334-10.24c-0.1024-0.341333-0.1536-0.682667-0.238933-1.024a61.149867 61.149867 0 0 1-0.989867-5.239467v-0.136533c-0.256-1.6896-0.443733-3.413333-0.597333-5.137067l-0.1024-1.3312a96.238933 96.238933 0 0 1-0.187733-5.393066c0-1.826133 0.085333-3.601067 0.187733-5.376l0.1024-1.3312c0.1536-1.7408 0.341333-3.413333 0.597333-5.137067v-0.1536c0.238933-1.774933 0.580267-3.498667 0.989867-5.239467 0.085333-0.341333 0.136533-0.682667 0.238933-1.024 0.853333-3.515733 1.877333-6.912 3.157334-10.24 0.0512-0.170667 0.1536-0.341333 0.2048-0.529066a79.223467 79.223467 0 0 1 41.915733-43.4176v-0.034134a79.189333 79.189333 0 0 1 63.214933 0v0.034134a79.530667 79.530667 0 0 1 41.9328 43.4176c0.0512 0.187733 0.136533 0.341333 0.187734 0.546133 1.297067 3.310933 2.321067 6.7072 3.1744 10.222933 0.085333 0.341333 0.136533 0.682667 0.238933 1.024 0.392533 1.7408 0.733867 3.464533 0.989867 5.239467v0.1536c0.238933 1.672533 0.443733 3.413333 0.597333 5.12 0.034133 0.4608 0.034133 0.904533 0.085333 1.348267 0.1024 1.774933 0.2048 3.549867 0.2048 5.376 0 1.826133-0.1024 3.601067-0.2048 5.393066-0.0512 0.443733-0.0512 0.887467-0.085333 1.3312z m-78.728533 88.098134c11.0592 0 21.725867-1.928533 31.607466-5.4272v155.938133c0 12.458667-9.728 22.5792-21.9648 23.261867-0.256 0-0.4608 0.0512-0.699733 0.0512h-17.8688c-0.256 0-0.443733-0.0512-0.648533-0.0512a23.296 23.296 0 0 1-21.981867-23.261867v-155.938133a93.917867 93.917867 0 0 0 31.573333 5.4272z"  horiz-adv-x="1024" />

    
    <glyph glyph-name="dingdanjine" unicode="&#58903;" d="M540.672 351.232m-432.128 0a432.128 432.128 0 1 1 864.256 0 432.128 432.128 0 1 1-864.256 0ZM535.552 343.04l-3.072-1.024c-11.264-6.144-26.624-2.048-32.768 10.24l-111.616 204.8c-6.144 11.264-2.048 26.624 10.24 32.768l2.048 1.024c11.264 6.144 26.624 2.048 32.768-10.24l111.616-205.824c6.144-10.24 2.048-25.6-9.216-31.744zM503.808 349.184l2.048-1.024c11.264-6.144 26.624-2.048 32.768 10.24l111.616 205.824c6.144 11.264 2.048 26.624-10.24 32.768l-2.048 1.024c-11.264 6.144-26.624 2.048-32.768-10.24L494.592 381.952c-6.144-12.288-2.048-26.624 9.216-32.768zM664.576 369.664H374.784c-14.336 0-26.624 12.288-26.624 26.624v3.072c0 14.336 12.288 26.624 26.624 26.624h289.792c14.336 0 26.624-12.288 26.624-26.624v-3.072c-1.024-14.336-12.288-26.624-26.624-26.624zM664.576 260.096H374.784c-14.336 0-26.624 12.288-26.624 26.624v3.072c0 14.336 12.288 26.624 26.624 26.624h289.792c14.336 0 26.624-12.288 26.624-26.624v-3.072c-1.024-15.36-12.288-26.624-26.624-26.624zM523.264 423.936h-3.072c-13.312 0-24.576-11.264-24.576-24.576v-217.088c0-13.312 11.264-24.576 24.576-24.576h3.072c13.312 0 24.576 11.264 24.576 24.576V400.384c0 12.288-11.264 23.552-24.576 23.552zM508.928-107.52c-271.36 0-491.52 220.16-491.52 491.52s220.16 491.52 491.52 491.52 491.52-220.16 491.52-491.52-221.184-491.52-491.52-491.52z m0 919.552C272.384 812.032 79.872 620.544 79.872 384c0-236.544 192.512-428.032 428.032-428.032S936.96 147.456 936.96 384c0 236.544-192.512 428.032-428.032 428.032z"  horiz-adv-x="1024" />

    
    <glyph glyph-name="-oprate-guide" unicode="&#58888;" d="M511.488 793.3952a409.088 409.088 0 1 0 0-818.176 409.088 409.088 0 0 0 0 818.176zM414.8224 513.9968v-260.352c0-14.9504 13.056-25.088 26.0096-18.5344 17.6128 8.9088 224.1024 118.6816 239.3088 126.1568 15.9232 7.7312 19.968 21.9648 1.9456 32.0512-20.3776 11.3664-224.6656 132.9152-236.8512 139.264-15.104 7.936-30.4128-5.0688-30.4128-18.5856z"  horiz-adv-x="1024" />

    
    <glyph glyph-name="-fun-menu" unicode="&#58889;" d="M489.6256 361.57439999999997v-167.936a167.9872 167.9872 0 1 0-168.0384 167.936h168.0384z m212.7872 0a167.9872 167.9872 0 1 0-167.9872-167.936v167.936h167.936zM321.536 742.4a167.9872 167.9872 0 0 0 168.0384-167.9872v-168.0384H321.536a167.9872 167.9872 0 1 0 0 336.0256z m380.8256 0a167.9872 167.9872 0 0 0 0-336.0256h-167.9872V574.4639999999999A167.9872 167.9872 0 0 0 702.3104 742.4z"  horiz-adv-x="1024" />

    
    <glyph glyph-name="-agent-item" unicode="&#58897;" d="M733.0304 415.5904c-103.0656 0-186.624-86.2208-186.624-192.5632s83.5584-192.5632 186.624-192.5632 186.624 86.2208 186.624 192.512c0 106.3936-83.5584 192.6144-186.624 192.6144z m96.768-239.9232h-96.8704a18.0224 18.0224 0 0 0-18.0224 18.0224v96.768a18.0224 18.0224 0 1 0 36.096 0v-78.7456h78.7456a18.0224 18.0224 0 1 0 0-36.0448zM821.0944 484.9664V733.1328c0 33.28-26.9824 60.2624-60.2624 60.2624H162.8672c-33.28 0-60.2112-26.9824-60.2112-60.2624v-670.0032c0-33.28 26.9824-60.2112 60.2112-60.2112h424.9088s14.1312 10.5984-3.2256 23.9616a246.9376 246.9376 0 0 0-95.5904 215.04c8.2432 110.8992 92.3648 204.1344 201.5744 224.9728a242.8928 242.8928 0 0 0 106.7008-3.2768c8.1408-2.0992 11.8272-1.024 16.7936 1.7408 7.4752 4.096 7.0656 19.6096 7.0656 19.6096z m-416.4608-259.072a25.8048 25.8048 0 0 0-25.8048-25.8048H209.408a25.8048 25.8048 0 0 0-25.8048 25.8048v22.4256c0 14.2336 11.52 25.8048 25.8048 25.8048h169.3696c14.2336 0 25.8048-11.5712 25.8048-25.8048v-22.4256z m73.9328 188.928c0-16.4864-13.312-29.8496-29.7984-29.8496H213.4528a29.7984 29.7984 0 0 0-29.7984 29.7984v14.3872c0 16.4864 13.312 29.7984 29.7984 29.7984h235.3152c16.4864 0 29.7984-13.312 29.7984-29.7984v-14.336z m122.368 154.9824H220.672a37.0176 37.0176 0 0 0 0 74.0352h380.2624a37.0176 37.0176 0 1 0 0-74.0352z"  horiz-adv-x="1024" />

    
    <glyph glyph-name="-done-item" unicode="&#58908;" d="M344.7296 614.656a48.384 48.384 0 0 0-47.616 48.7936V744.8063999999999c0 26.8288 21.4528 48.7424 47.616 48.7424 26.2144 0 47.6672-21.9136 47.6672-48.7424v-81.3568c0-26.8288-21.4528-48.7936-47.616-48.7936z m333.9776 0a48.384 48.384 0 0 0-47.616 48.7936V744.8063999999999c0 26.8288 21.4016 48.7424 47.616 48.7424s47.6672-21.9136 47.6672-48.7424v-81.3568a48.384 48.384 0 0 0-47.616-48.7936zM822.272 757.76H201.216c-25.9072 0-47.2064-22.3744-47.2064-49.4592v-651.8784c0-27.648 21.2992-49.92 47.616-49.92h620.2368c26.3168 0 47.616 22.3744 47.616 49.92V708.3008c-0.4096 27.136-21.2992 49.5104-47.2064 49.5104z m-111.872-382.0544l-204.288-214.6304a29.696 29.696 0 0 0-43.1104 0l-128.9728 135.5264a33.28 33.28 0 0 0 0 45.1584 29.696 29.696 0 0 0 43.008 0l107.6736-113.152 183.04 192.256a29.696 29.696 0 0 0 43.008 0 33.536 33.536 0 0 0-0.4096-45.1584z m97.4336 296.5504c-0.4096-9.216-0.4096-21.9648-0.768-37.5808-0.4608-13.1584-0.4608-26.368-0.4608-36.7616H215.3472V688.64c0 1.3824 0.6144 2.7136 1.5872 3.6864a5.12 5.12 0 0 0 3.7376 1.536h582.144c3.072 0 5.3248-2.4064 5.3248-5.2224-0.4096-4.7616-0.4096-10.752-0.4096-16.384h0.1024z"  horiz-adv-x="1024" />

    
    <glyph glyph-name="baojiajine" unicode="&#58896;" d="M19.339636 385.140364a493.800727 493.800727 0 1 1 987.601455-0.046546A493.800727 493.800727 0 0 1 19.316364 385.140364zM670.161455 129.140364H376.599273s-106.938182 11.380364-98.978909 130.839272c-7.959273 150.178909 95.581091 229.841455 142.219636 261.701819-23.901091 15.918545-55.761455 39.796364-55.761455 71.68 0 31.837091 11.403636 47.778909 23.901091 55.738181 19.339636 11.380364 43.240727 15.941818 71.68 3.421091 15.941818 23.877818 39.819636 31.860364 67.141819 31.860364 15.918545-3.421091 35.258182-11.403636 43.217454-27.322182 23.901091 11.403636 43.240727 15.941818 63.720727 7.982546 23.901091-7.982545 39.819636-31.883636 47.778909-51.2 7.982545-23.901091-27.298909-59.182545-59.159272-87.621819 47.802182-27.298909 154.763636-110.359273 146.781091-265.099636v-11.380364c0-84.200727-63.720727-116.061091-98.978909-120.599272z m-289.000728 31.860363h289.000728c7.959273 0 75.077818 11.380364 75.077818 90.996364v7.982545c7.959273 174.08-142.196364 245.76-150.178909 245.76l-27.298909 11.380364 19.316363 15.918545c35.281455 27.322182 67.141818 63.720727 67.141818 71.68-3.421091 7.982545-11.380364 27.322182-27.298909 31.883637-15.941818 3.397818-31.883636 0-51.2-11.403637l-15.941818-7.959272-3.397818 15.941818c-3.421091 7.959273-15.941818 19.316364-31.883636 19.316364-11.357091 0-27.298909 0-43.217455-23.877819l-7.959273-7.959272-11.403636 3.421091c-19.316364 7.959273-43.217455 7.959273-55.738182 0-7.959273-3.421091-11.380364-15.941818-11.380364-27.322182 0-23.877818 47.802182-51.2 63.720728-59.159273l31.883636-11.380364-31.883636-15.918545c-7.959273-3.421091-158.138182-71.68-150.178909-245.76-6.818909-91.019636 64.861091-103.563636 72.820363-103.563636zM614.4 275.921455h-75.101091v-47.802182c0-7.959273-7.959273-11.380364-15.918545-11.380364s-15.941818 3.421091-15.941819 11.403636v47.77891h-75.077818c-7.959273 0-11.403636 7.959273-11.403636 15.918545s3.444364 15.918545 11.403636 15.918545h75.077818v27.322182h-43.217454c-7.982545 0-11.403636 7.959273-11.403636 15.918546s3.421091 15.941818 11.403636 15.941818h35.258182l-43.240728 43.217454c-3.397818 3.421091 0 11.403636 7.982546 15.941819 7.959273 3.421091 15.918545 7.959273 19.316364 3.421091l39.842909-43.240728 43.240727 47.778909c3.397818 3.421091 11.380364 0 19.316364-3.421091 7.982545-3.397818 7.982545-11.357091 7.982545-15.918545l-47.778909-51.2h35.258182c7.959273 0 11.403636-7.959273 11.403636-15.918545 0-7.982545-3.444364-15.941818-11.403636-15.941819h-43.240728v-27.298909H614.4c7.959273 0 11.380364-7.959273 11.380364-15.941818 1.140364-4.538182-6.818909-12.497455-11.380364-12.497454z"  horiz-adv-x="1024" />

    
    <glyph glyph-name="xiaofeijine" unicode="&#59069;" d="M598.2 325.3c11.8 0 21.3 9.5 21.3 21.3s-9.5 21.3-21.3 21.3h-45.6l44.5 41.8c8.6 8.1 9 21.6 0.9 30.2-8.1 8.6-21.6 9-30.2 0.9l-55-51.8-55 51.8c-8.6 8.1-22 7.7-30.2-0.9-8.1-8.6-7.7-22.1 0.9-30.2l44.4-41.8h-47c-11.8 0-21.3-9.5-21.3-21.3s9.5-21.3 21.3-21.3h64.8v-37.9h-64.8c-11.8 0-21.3-9.6-21.3-21.3 0-11.8 9.5-21.3 21.3-21.3h64.8v-54.2c0-11.8 9.5-21.3 21.3-21.3s21.3 9.5 21.3 21.3v54.2h64.8c11.8 0 21.3 9.5 21.3 21.3s-9.5 21.3-21.3 21.3h-64.8v37.9h64.9zM512 896C229.2 896 0 666.8 0 384s229.2-512 512-512 512 229.2 512 512S794.8 896 512 896z m-0.1-794.7c-121.8 0-284 27.6-278 207.7 3.1 93 83.9 180.1 179.7 217.8-38.8 36.4-39 72.6-39 72.6 0 73.9 137.4 67.2 137.4 67.2s137.4 6.7 137.4-67.2c0 0-0.3-34.3-39.5-73.5 95.3-38.9 177.1-128 180.2-220.8 6-180.1-156.4-203.8-278.2-203.8z"  horiz-adv-x="1024" />

    
    <glyph glyph-name="jine3" unicode="&#58905;" d="M512 384m-512 0a512 512 0 1 1 1024 0 512 512 0 1 1-1024 0ZM508.536471 139.896471c-54.964706 0-110.08 1.505882-164.894118-0.451765-45.477647-1.656471-77.251765 42.616471-71.981177 77.402353 11.143529 73.487059 29.816471 144.715294 71.228236 207.811765 20.48 31.171765 46.682353 56.32 85.534117 63.09647 9.185882 1.656471 18.823529 1.505882 28.310589 1.505882 35.990588 0.150588 72.131765-0.903529 108.122353 0.301177 40.207059 1.355294 71.529412-15.058824 96.828235-44.724706 36.592941-42.917647 55.416471-94.268235 69.872941-147.576471 6.475294-23.642353 10.691765-48.037647 15.962353-71.981176 9.185882-41.562353-26.202353-87.792941-71.077647-85.985882-55.868235 2.258824-111.887059 0.602353-167.905882 0.602353z m-13.251765 106.61647c0-14.908235-0.150588-27.557647 0-40.357647 0.150588-9.637647 5.12-15.36 14.757647-15.510588 9.788235-0.301176 14.607059 5.722353 15.209412 15.058823 0.301176 3.312941 0.150588 6.625882 0.150588 9.938824 0.150588 30.870588 0.150588 30.870588 31.623529 30.870588 10.390588 0 21.232941-1.505882 31.171765 0.752941 5.722353 1.355294 13.101176 8.131765 14.456471 13.70353 1.957647 8.734118-4.668235 15.058824-14.155294 15.661176-9.938824 0.602353-19.877647 0.150588-29.816471 0.301177h-31.924706v19.275294h56.470588c10.541176 0 19.727059 3.162353 20.028236 15.209412 0.301176 12.950588-9.185882 16.414118-20.178824 16.414117-10.691765 0.150588-21.232941 0-33.731765 0 3.312941 6.324706 5.270588 10.390588 7.529412 14.456471l32.075294 56.922353c5.12 9.185882 8.734118 19.124706-2.861176 25.901176-11.595294 6.776471-18.371765-0.451765-23.642353-10.089412-2.710588-4.969412-5.571765-9.938824-8.282353-14.908235-13.703529-24.244706-27.407059-48.338824-41.86353-73.637647-2.56 3.463529-4.065882 5.12-5.270588 7.077647-15.962353 28.009412-31.774118 56.018824-47.585882 84.028235-5.12 9.035294-12.649412 13.251765-22.287059 7.529412-9.035294-5.270588-9.185882-13.552941-4.668235-22.13647 4.969412-9.185882 10.089412-18.221176 15.209412-27.256471 8.583529-15.510588 17.167059-30.870588 26.654117-47.887059h-35.388235c-10.992941 0.150588-20.329412-2.56-21.684706-15.36-1.054118-10.089412 7.378824-16.263529 21.985882-16.263529 18.371765-0.150588 36.743529 0 55.567059 0v-19.275294c-20.178824 0-39.454118 0.903529-58.729412-0.451765-6.174118-0.451765-14.456471-5.270588-17.468235-10.541176-5.571765-9.637647 3.162353-18.823529 16.715294-19.124706 19.425882-0.451765 39.152941-0.301176 59.934118-0.301177z m0 0M506.88 514.710588c-17.016471 0-34.032941 0.602353-51.049412-0.150588-18.371765-0.903529-32.828235 6.324706-42.315294 20.931765-11.294118 17.317647-22.287059 35.237647-30.268235 54.211764-11.595294 27.557647 7.830588 53.308235 37.345882 49.844706 14.155294-1.656471 27.858824-7.981176 41.562353-13.101176 11.444706-4.216471 22.136471-10.992941 33.882353-14.155294 15.962353-4.367059 30.569412 0.903529 43.971765 10.541176 19.124706 14.004706 40.207059 20.48 64.150588 15.209412 23.943529-5.270588 35.237647-24.847059 26.503529-48.037647-4.367059-11.444706-10.089412-22.287059-15.811764-33.28-15.209412-29.214118-36.442353-47.585882-72.432941-42.315294-11.595294 1.807059-23.642353 0.301176-35.538824 0.301176z m0 0"  horiz-adv-x="1024" />

    
    <glyph glyph-name="jine4" unicode="&#58995;" d="M1022.518951-80.884911a44.583381 44.583381 0 0 0-44.608698-44.608698H492.632433a44.608698 44.608698 0 1 0 0 89.217396h485.27782a44.583381 44.583381 0 0 0 44.608698-44.608698z m0 0M1010.341434-113.214824a44.583381 44.583381 0 0 0-63.115484 0l-176.485376 176.611961a44.507429 44.507429 0 0 0 0 63.014216 44.507429 44.507429 0 0 0 63.014216 0l176.485376-176.485376a44.659332 44.659332 0 0 0 0-63.115484z m0 0M836.79284 49.472742l105.977304-130.357653-257.753208 14.481371 65.267436 83.242564z m0 0M0.594951 384.291146A510.949341 510.949341 0 1 1 511.56961 895.240488 510.974658 510.974658 0 0 1 0.594951 384.291146z m0 0M680.004154 380.696121a44.608698 44.608698 0 1 1 0 89.217395h-104.660816l115.775014 115.775015a44.558064 44.558064 0 0 1-63.014216 63.014216l-115.243355-115.344624-115.344624 115.218038a44.558064 44.558064 0 0 1-63.014216-63.014216l115.775014-115.775014h-103.040522a44.608698 44.608698 0 1 1 0-89.217396h121.851114v-62.355972h-121.851114a44.634015 44.634015 0 1 1 0-89.242712h121.851114v-138.408485a44.634015 44.634015 0 0 1 89.242712 0v138.408485h121.901748a44.634015 44.634015 0 0 1 0 89.242712h-121.876431v62.457241z m0 0"  horiz-adv-x="1024" />

    
    <glyph glyph-name="jine" unicode="&#58882;" d="M512 832c60.5 0 119.2-11.8 174.4-35.2 53.3-22.6 101.3-54.9 142.4-96 41.2-41.2 73.5-89.1 96-142.4C948.2 503.2 960 444.5 960 384s-11.8-119.2-35.2-174.4c-22.6-53.3-54.9-101.3-96-142.4-41.2-41.2-89.1-73.5-142.4-96C631.2-52.200000000000045 572.5-64 512-64s-119.2 11.8-174.4 35.2c-53.3 22.6-101.3 54.9-142.4 96-41.2 41.2-73.5 89.1-96 142.4C75.8 264.79999999999995 64 323.5 64 384s11.8 119.2 35.2 174.4c22.6 53.3 54.9 101.3 96 142.4s89.1 73.5 142.4 96C392.8 820.2 451.5 832 512 832m0 64C229.2 896 0 666.8 0 384s229.2-512 512-512 512 229.2 512 512S794.8 896 512 896zM735.8 423.1c17.7 0 32.2 14.5 32.2 32.2 0 17.7-14.5 32.2-32.2 32.2H593.3l122.3 122.3c12.5 12.5 12.5 32.8 0 45.3s-32.8 12.5-45.3 0L512 496.7 353.6 655.1c-12.5 12.5-32.8 12.5-45.3 0s-12.5-32.8 0-45.3l122.3-122.3H288.2c-17.7 0-32.2-14.5-32.2-32.2 0-17.7 14.5-32.2 32.2-32.2h191.6v-95.2H288.2c-17.7 0-32.2-14.5-32.2-32.2 0-17.7 14.5-32.2 32.2-32.2h191.6v-167.7c0-17.7 14.5-32.2 32.2-32.2 17.7 0 32.2 14.5 32.2 32.2V263.5h191.6c17.7 0 32.2 14.5 32.2 32.2 0 17.7-14.5 32.2-32.2 32.2H544.2v95.2h191.6z"  horiz-adv-x="1024" />

    
    <glyph glyph-name="jine1" unicode="&#58907;" d="M0.09998 895.6973H1023.79728v-1023.6973H0.09998zM499.601075 340.907153H497.901412v-2.399525h1.699663c0.599881 0 1.599683 0 1.599683 1.199762 0.09998 1.299743-0.999802 1.199762-1.599683 1.199763zM986.304704 264.122357C953.011296 398.295789 866.22848 512.973082 746.152256 581.359541c-14.297169 8.298357-29.194219 15.296971-43.991289 22.795487 0 0 0 0.699861 0.39992 0.899821 2.499505 2.399525 5.09899 4.69907 7.398535 7.098595 26.494754 23.495348 47.090676 52.889527 60.288063 85.783014 5.798852 16.096813 7.198575 23.195407 11.297763 38.392398 10.797862 36.192834-0.599881 75.285093-29.194219 99.880223C717.557918 867.102962 667.567816 873.901616 625.876072 853.405674c-3.199367-1.299743-5.198971-2.299545-8.298357 0.699861-59.388241 55.389033-151.370028 55.888934-211.45813 1.299743-1.999604-2.599485-5.498911-3.199367-8.298357-1.599683-23.295387 10.797862-49.490201 13.597308-74.585231 8.098396-51.889725-8.298357-87.982579-56.088894-81.683826-108.27856 5.498911-47.690557 25.794892-92.381708 57.888537-127.97466 6.698674-7.598495 13.797268-14.69709 21.095823-22.295585-1.899624-0.899822-3.499307-1.899624-5.398931-2.599485C145.671156 521.171459 33.093447 355.404282 21.495744 168.541283c-4.199169-52.189666 0.19996-104.679273 12.797466-155.369236 19.79608-81.983767 92.781629-140.072265 177.064939-141.072067 201.060189 0.399921 402.220357 0 603.180566 0 60.987924-0.899822 117.97664 30.194021 150.370225 81.883787 17.296575 26.894675 28.294397 57.488617 31.993665 89.282321 12.097605 73.485449 8.598297 148.570582-10.29796 220.556328l-0.299941 0.299941z m-333.833898-127.97466c-5.898832-4.399129-13.097407-6.598693-20.495942-6.398733h-86.782816v-27.494556c-0.19996-8.898238-3.499307-17.396555-9.298159-24.095229-5.598891-7.598495-14.89705-11.497723-24.29519-10.297961-8.898238-0.299941-17.696496 2.399525-24.89507 7.698476-7.498515 6.898634-11.497723 16.696694-11.197783 26.894674v27.494556h-84.183331c-7.598495-0.299941-14.89705 2.399525-20.495942 7.598496-5.198971 4.599089-7.798456 11.597704-6.798653 18.496337-0.299941 7.498515 2.699465 14.79707 8.098396 19.996041 5.198971 4.89903 12.097605 7.698476 19.196199 7.598495h84.283311v48.090478h-84.283311c-7.498515-0.299941-14.79707 2.699465-19.89606 8.298357-4.79905 5.198971-7.498515 12.097605-7.398535 19.196199 0.19996 7.598495 2.999406 14.99703 8.098396 20.695902 4.599089 5.998812 11.697684 9.498119 19.196199 9.598099h84.283311l1.299743 28.894279c-14.79707 16.396753-28.494358 31.993665-40.891903 46.690755-10.797862 12.797466-20.695902 24.79509-29.794101 35.792913l-18.596317 19.196199c-4.89903 6.998614-8.698278 14.59711-11.197783 22.695506-3.199367 10.098001-1.399723 21.095823 4.89903 29.59414 6.098792 8.798258 17.596516 11.997624 27.294595 7.598495 9.69808-3.399327 18.496338-8.798258 25.994853-15.696892 3.299347-4.499109 9.198179-11.497723 17.296575-20.695902l59.488221-65.986934c14.097209 14.69709 26.894675 27.994457 38.392398 39.892101 9.89804 9.99802 19.89606 19.996041 29.794101 29.59414s16.896654 16.296773 21.095822 19.996041c6.498713 6.898634 15.396951 10.797862 24.795091 10.897842 9.098198 0 17.496536-4.69907 22.295585-12.397545 10.797862-13.697288 6.398733-29.794101-12.497525-48.090478-7.798456-7.598495-15.296971-15.696892-22.295586-24.095229-9.89804-11.497723-19.89606-22.695506-29.7941-33.693328-11.497723-13.697288-24.39517-27.994457-38.392398-42.591567v-26.194813h80.684024c9.398139 0.899822 18.696298-2.399525 25.594932-8.898238 5.198971-5.398931 8.098396-12.597506 8.098396-19.996041 0.09998-7.798456-2.499505-15.396951-7.398535-21.395763-6.498713-6.498713-15.796872-9.398139-24.79509-7.598495l-80.684024-1.299743-1.299743-46.690755h79.384282c23.195407 0 34.69313-9.5981 34.69313-28.894279 1.499703-7.298555-1.099782-14.89705-6.798654-19.79608l0.199961-0.19996z"  horiz-adv-x="1024" />

    
    <glyph glyph-name="jine2" unicode="&#58890;" d="M511.890024 384.109976m-511.890024 0a511.890024 511.890024 0 1 1 1023.780047 0 511.890024 511.890024 0 1 1-1023.780047 0ZM545.522798 368.22339v-40.551288h87.391224a33.562789 33.562789 0 0 0 0-66.985609h-87.391224v-57.987542a33.562789 33.562789 0 1 0-67.115581 0v58.27748h-87.251254a33.562789 33.562789 0 0 0 0 66.985608h87.251254v40.261351h-87.251254a33.562789 33.562789 0 0 0 0 66.985608h73.534201L358.922888 540.726328a33.562789 33.562789 0 0 0 45.270274 49.559353c0.749839-0.679854 1.459686-1.399699 2.149538-2.149538l105.477339-105.527328 105.667298 105.527328A33.562789 33.562789 0 1 0 667.046689 542.855871c-0.679854-0.749839-1.399699-1.459686-2.13954-2.149538L558.799945 435.199h73.5442a33.562789 33.562789 0 0 0 0-66.985608z"  horiz-adv-x="1024" />

    
    <glyph glyph-name="toggle-left" unicode="&#59008;" d="M874.666667 96H149.333333c-17.066667 0-32-14.933333-32-32s14.933333-32 32-32h725.333334c17.066667 0 32 14.933333 32 32s-14.933333 32-32 32zM149.333333 672h725.333334c17.066667 0 32 14.933333 32 32s-14.933333 32-32 32H149.333333c-17.066667 0-32-14.933333-32-32s14.933333-32 32-32zM341.333333 416c-17.066667 0-32-14.933333-32-32s14.933333-32 32-32h512c17.066667 0 32 14.933333 32 32s-14.933333 32-32 32H341.333333zM275.2 211.20000000000005c6.4-6.4 14.933333-8.533333 23.466667-8.533333s17.066667 2.133333 23.466666 8.533333c12.8 12.8 12.8 32 0 44.8l-128 128 125.866667 125.866667c12.8 12.8 12.8 32 0 44.8-12.8 12.8-32 12.8-44.8 0l-149.333333-149.333334c-12.8-12.8-12.8-32 0-44.8l149.333333-149.333333z"  horiz-adv-x="1024" />

    
    <glyph glyph-name="toggle-right" unicode="&#59009;" d="M874.666667 96H149.333333c-17.066667 0-32-14.933333-32-32s14.933333-32 32-32h725.333334c17.066667 0 32 14.933333 32 32s-14.933333 32-32 32zM149.333333 672h725.333334c17.066667 0 32 14.933333 32 32s-14.933333 32-32 32H149.333333c-17.066667 0-32-14.933333-32-32s14.933333-32 32-32zM149.333333 352h512c17.066667 0 32 14.933333 32 32s-14.933333 32-32 32H149.333333c-17.066667 0-32-14.933333-32-32s14.933333-32 32-32zM748.8 556.8c-12.8 12.8-32 12.8-44.8 0-12.8-12.8-12.8-32 0-44.8l125.866667-125.866667-125.866667-125.866666c-12.8-12.8-12.8-32 0-44.8 6.4-6.4 14.933333-8.533333 23.466667-8.533334s17.066667 2.133333 23.466666 8.533334l149.333334 149.333333c12.8 12.8 12.8 32 0 44.8l-151.466667 147.2z"  horiz-adv-x="1024" />

    
    <glyph glyph-name="xiala" unicode="&#58902;" d="M1011.2 584.533c-17.067 17.067-42.667 17.067-59.733 0l-439.467-413.867-439.467 413.867c-17.067 17.067-42.667 17.067-59.733 0-17.067-17.067-17.067-42.667 0-59.733l439.467-413.867c17.067-17.067 38.4-25.6 59.733-25.6s42.667 8.533 59.733 25.6l439.467 413.867c17.067 17.067 17.067 42.667 0 59.733z"  horiz-adv-x="1024" />

    
    <glyph glyph-name="xiala1" unicode="&#58971;" d="M814.592 547.7888l-261.7344-346.624a51.2 51.2 0 0 0-81.7152 0L209.408 547.7376A25.6 25.6 0 0 0 229.8368 588.8H794.112a25.6 25.6 0 0 0 20.48-41.0112z"  horiz-adv-x="1024" />

    
    <glyph glyph-name="shangla1" unicode="&#58973;" d="M100.122 204.022c-15.357-16.61-14.341-42.524 2.269-57.881 16.444-15.204 42.007-14.36 57.418 1.775l0.464 0.493 353.583 382.434 350.769-381.698c15.154-16.49 40.7-17.727 57.372-2.898l0.502 0.454c16.49 15.154 17.728 40.7 2.899 57.372l-0.455 0.502-380.835 414.418c-16.033 17.447-43.431 17.662-59.743 0.613l-0.491-0.522-383.752-415.062z"  horiz-adv-x="1024" />

    
    <glyph glyph-name="qiehuanqiyou" unicode="&#58880;" d="M881.298746 375.657405 398.119373 896 175.112486 896 658.29178 375.657405 175.112507-107.504117l223.006914 0L881.298746 375.657405z"  horiz-adv-x="1024" />

    
    <glyph glyph-name="qiehuanqizuo" unicode="&#58881;" d="M658.29178-107.504117l223.006914 0L398.119373 375.657405 881.298746 896 658.291782 896 175.112507 375.657405 658.29178-107.504117z"  horiz-adv-x="1024" />

    
    <glyph glyph-name="shoucang" unicode="&#59276;" d="M486.4 115.2c16 6.4 35.2 6.4 54.4 0l217.6-99.2-28.8 236.8c-3.2 19.2 3.2 38.4 16 51.2l163.2 176-233.6 48c-19.2 3.2-35.2 16-41.6 32l-118.4 208-118.4-208c-9.6-16-25.6-28.8-41.6-32l-233.6-48 163.2-176c12.8-12.8 19.2-32 16-51.2l-28.8-236.8 214.4 99.2z m-192-156.8c-32-16-70.4 0-86.4 32-6.4 9.6-6.4 22.4-6.4 35.2l28.8 236.8-163.2 176c-22.4 25.6-22.4 67.2 3.2 89.6 9.6 6.4 19.2 12.8 32 16l233.6 48 118.4 208c16 32 57.6 41.6 86.4 25.6 9.6-6.4 19.2-12.8 25.6-25.6l118.4-208 233.6-48c35.2-6.4 57.6-41.6 51.2-76.8-3.2-12.8-6.4-22.4-16-32l-163.2-176 28.8-236.8c3.2-35.2-22.4-67.2-57.6-70.4-12.8 0-22.4 0-35.2 6.4l-217.6 99.2-214.4-99.2z"  horiz-adv-x="1024" />

    
    <glyph glyph-name="baseline-close-px" unicode="&#58901;" d="M810.666667 622.506667L750.506667 682.666667 512 444.16 273.493333 682.666667 213.333333 622.506667 451.84 384 213.333333 145.493333 273.493333 85.333333 512 323.84 750.506667 85.333333 810.666667 145.493333 572.16 384z"  horiz-adv-x="1024" />

    
    <glyph glyph-name="shangla11" unicode="&#58920;" d="M753.79 293.35c10.58-11.23 13.85-27.45 8.32-41.89-5.47-14.44-18.72-24.42-34.11-25.73H294.88c-15.33 1.37-28.52 11.41-33.99 25.79-5.47 14.38-2.2 30.66 8.38 41.83l216.65 236.91a34.086 34.086 0 0 0 25.61 11.59c9.81 0 19.14-4.22 25.61-11.59l216.65-236.91z m0 0"  horiz-adv-x="1024" />

    
    <glyph glyph-name="rili" unicode="&#59269;" d="M885.927617 772.301971H713.348395V829.82906h-57.527089v-57.527089h-115.050086V829.82906h-57.54244v-57.527089h-115.050086V829.82906h-57.527089v-57.527089h-172.580246c-47.583643 0-86.288076-38.70648-86.288076-86.290123v-661.550786c0-47.583643 38.704433-86.290123 86.288076-86.290122h747.857282c47.580573 0 86.289099 38.70648 86.289099 86.290122V686.011848c0 47.583643-38.70955 86.290123-86.290123 86.290123z m28.764057-747.840909c0-15.843818-12.920238-28.764056-28.763033-28.764056H138.070336c-15.869401 0-28.760987 12.920238-28.760986 28.764056V686.011848c0 15.899077 12.892609 28.763033 28.760986 28.763033h172.580246v-57.527089h57.527089v57.527089h115.050086v-57.527089h57.542439v57.527089h115.05111v-57.527089h57.527089v57.527089h172.579222c15.842795 0 28.763033-12.863957 28.763033-28.763033v-661.550786zM253.124515 542.196682h115.054179v-57.497414H253.124515zM454.466771 542.196682h115.066458v-57.497414H454.466771zM655.821306 542.196682H770.875485v-57.497414H655.821306zM253.124515 369.618483h115.054179v-57.528112H253.124515zM454.466771 369.618483h115.066458v-57.528112H454.466771zM655.821306 369.618483H770.875485v-57.528112H655.821306zM253.124515 197.040285h115.054179v-57.528113H253.124515zM454.466771 197.040285h115.066458v-57.528113H454.466771zM655.821306 197.040285H770.875485v-57.528113H655.821306z"  horiz-adv-x="1024" />

    
    <glyph glyph-name="yanzhengma1" unicode="&#59040;" d="M919.561369 650.272459c-0.899486 28.28623-24.311709 55.009871-52.010561 59.8409 0 0-107.385752 16.977673-167.643138 38.420031-75.231425 26.770713-149.681044 85.617983-149.681044 85.617983-23.220864 16.58063-58.83806 15.552208-80.374562-2.372024 0 0-52.704362-53.179177-151.044088-84.22117-90.852194-36.510542-163.464979-40.248679-163.464979-40.248679-27.402093-3.571339-50.991348-28.867468-51.522444-57.147558 0 0-3.690042-145.387251 0.966001-272.985348 1.759063-228.268914 271.994788-453.937606 408.55193-453.937606 134.416386 0 366.709963 157.224858 403.249157 450.619024C925.617295 548.046217 919.561369 650.272459 919.561369 650.272459zM709.887976 450.018599 477.54835 214.847485c-9.899464-10.018168-26.696012-11.174504-38.07927-2.124384l-121.329323 96.414887c-22.289656 17.711384-24.614607 48.538483-4.89038 69.169359 19.587104 20.48966 53.223179 23.199375 75.962066 5.403057l56.322773-44.083008 193.563484 182.358281c20.162202 18.995633 52.216245 18.458397 71.897493-0.325411-0.281409 0.293689-0.35918 0.693802-0.649799 0.984421l1.64036-1.64343c-0.290619 0.290619-0.696872 0.3776-0.99056 0.659009C729.922265 501.76924 729.659275 470.030375 709.887976 450.018599z"  horiz-adv-x="1024" />

    
    <glyph glyph-name="yanzhengma" unicode="&#59071;" d="M895.744 622.72a59.2 59.2 0 0 1-46.72 51.936A1103.36 1103.36 0 0 0 697.92 709.44a561.28 561.28 0 0 0-135.008 78.912 61.76 61.76 0 0 1-72.16 0 354.112 354.112 0 0 0-136.032-78.4 507.264 507.264 0 0 0-146.944-36.32 55.04 55.04 0 0 1-46.208-51.936S160 491.36 160 376.64C160 168.96 405.056-32 527.616-32c122.528 0 330.24 141.76 363.456 405.504 8.32 155.776 2.56 248.704 2.56 248.704l2.112 0.544z m-133.44-160.416l-256-241.44c-11.52-10.976-29.12-12.704-42.56-4.16l-6.72 5.728-141.248 146.912a35.264 35.264 0 0 0 51.904 47.776l116.32-122.016 230.528 218.08a35.264 35.264 0 1 0 47.776-51.936v1.056z"  horiz-adv-x="1024" />

    
    <glyph glyph-name="mima" unicode="&#59259;" d="M1237.902222 479.573333h-102.4V595.626667c0 124.397037-100.882963 225.28-225.28 225.28S684.942222 720.023704 684.942222 595.626667v-116.053334h-102.4c-30.151111 0-54.613333-24.462222-54.613333-54.613333v-423.253333c0-30.151111 24.462222-54.613333 54.613333-54.613334h655.36c30.151111 0 54.613333 24.462222 54.613334 54.613334V424.96c0 30.151111-24.462222 54.613333-54.613334 54.613333z m-512 116.053334c0 101.641481 82.678519 184.32 184.32 184.32s184.32-82.678519 184.32-184.32v-116.053334H725.902222V595.626667z m204.8-320.758519c0-0.094815 0-0.094815 0 0v-136.533333c0-11.282963-9.197037-20.48-20.48-20.48-11.282963 0-20.48 9.197037-20.48 20.48v136.533333c-8.248889 6.257778-13.653333 16.118519-13.653333 27.306667 0 18.868148 15.265185 34.133333 34.133333 34.133333s34.133333-15.265185 34.133334-34.133333c0-11.282963-5.404444-21.143704-13.653334-27.306667z"  horiz-adv-x="1820" />

    
    <glyph glyph-name="yonghu" unicode="&#59266;" d="M910.317037 329.386667c135.68 0.094815 245.665185 110.08 245.665185 245.76S1045.997037 820.906667 910.222222 820.906667 664.462222 710.826667 664.462222 575.146667s109.985185-245.665185 245.665185-245.76c-211.057778-0.094815-382.198519-171.235556-382.198518-382.293334h764.586667c0 211.057778-171.045926 382.198519-382.198519 382.293334z"  horiz-adv-x="1820" />

    


  </font>
</defs>
</svg>
