<?xml version="1.0" encoding="UTF-8"?>
<svg width="18px" height="18px" viewBox="0 0 18 18" version="1.1" xmlns="http://www.w3.org/2000/svg" xmlns:xlink="http://www.w3.org/1999/xlink">
    <!-- Generator: Sketch 59.1 (86144) - https://sketch.com -->
    <title>菜单icon-反白@1x</title>
    <desc>Created with Sketch.</desc>
    <g id="20201013" stroke="none" stroke-width="1" fill="none" fill-rule="evenodd">
        <g id="定-1920-新改内页1-3隐藏头部导航" transform="translate(-27.000000, -15.000000)" fill-rule="nonzero">
            <g id="陕西导航-云">
                <g id="菜单">
                    <g id="菜单icon-反白" transform="translate(24.000000, 12.000000)">
                        <rect id="矩形" fill="#000000" opacity="0" x="0" y="0" width="24" height="24"></rect>
                        <path d="M20.25,3.375 L13.125,3.375 C12.91875,3.375 12.75,3.54375 12.75,3.75 L12.75,10.875 C12.75,11.08125 12.91875,11.25 13.125,11.25 L20.25,11.25 C20.45625,11.25 20.625,11.08125 20.625,10.875 L20.625,3.75 C20.625,3.54375 20.45625,3.375 20.25,3.375 Z M20.25,12.75 L13.125,12.75 C12.91875,12.75 12.75,12.91875 12.75,13.125 L12.75,20.25 C12.75,20.45625 12.91875,20.625 13.125,20.625 L20.25,20.625 C20.45625,20.625 20.625,20.45625 20.625,20.25 L20.625,13.125 C20.625,12.91875 20.45625,12.75 20.25,12.75 Z M10.875,3.375 L3.75,3.375 C3.54375,3.375 3.375,3.54375 3.375,3.75 L3.375,10.875 C3.375,11.08125 3.54375,11.25 3.75,11.25 L10.875,11.25 C11.08125,11.25 11.25,11.08125 11.25,10.875 L11.25,3.75 C11.25,3.54375 11.08125,3.375 10.875,3.375 Z M10.875,12.75 L3.75,12.75 C3.54375,12.75 3.375,12.91875 3.375,13.125 L3.375,20.25 C3.375,20.45625 3.54375,20.625 3.75,20.625 L10.875,20.625 C11.08125,20.625 11.25,20.45625 11.25,20.25 L11.25,13.125 C11.25,12.91875 11.08125,12.75 10.875,12.75 Z" id="形状" fill="#FFFFFF"></path>
                    </g>
                </g>
            </g>
        </g>
    </g>
</svg>